<?xml version="1.0" encoding="utf-8"?>
<!-- Generator: Adobe Illustrator 24.3.0, SVG Export Plug-In . SVG Version: 6.00 Build 0)  -->
<svg version="1.1" xmlns="http://www.w3.org/2000/svg" xmlns:xlink="http://www.w3.org/1999/xlink" x="0px" y="0px"
	 viewBox="0 0 26.3 27" style="enable-background:new 0 0 26.3 27;" xml:space="preserve">
<style type="text/css">
	.st0{fill:none;stroke:#515151;stroke-width:0.25;stroke-linecap:round;stroke-linejoin:round;stroke-miterlimit:10;}
	.st1{fill:none;stroke:#414042;stroke-linecap:round;stroke-linejoin:round;stroke-miterlimit:10;}
</style>
<g id="Layer_1">
	<line class="st0" x1="13.2" y1="24.4" x2="13.2" y2="26.7"/>
	<line class="st0" x1="2.8" y1="19" x2="2.8" y2="22.1"/>
	<line class="st0" x1="23.7" y1="19" x2="23.7" y2="21.3"/>
	<line class="st0" x1="23.7" y1="5.1" x2="23.7" y2="7.4"/>
	<line class="st0" x1="13.2" y1="0.5" x2="13.2" y2="2.8"/>
	<line class="st0" x1="15.2" y1="1.5" x2="13.2" y2="2.8"/>
	<line class="st0" x1="25.6" y1="6.2" x2="23.7" y2="7.4"/>
	<line class="st0" x1="13.2" y1="24.4" x2="11.3" y2="25.7"/>
	<line class="st0" x1="25.6" y1="17.9" x2="23.7" y2="19.2"/>
	<line class="st0" x1="2.8" y1="7.3" x2="0.9" y2="8.6"/>
	<line class="st0" x1="2.8" y1="19" x2="0.9" y2="20.3"/>
	<line class="st0" x1="2.8" y1="7.3" x2="0.7" y2="6.3"/>
	<line class="st0" x1="2.8" y1="19" x2="0.7" y2="18"/>
	<line class="st0" x1="15.3" y1="25.5" x2="13.2" y2="24.4"/>
	<line class="st0" x1="25.7" y1="20.1" x2="23.7" y2="19"/>
	<line class="st0" x1="25.7" y1="8.6" x2="23.7" y2="7.6"/>
	<line class="st0" x1="13.4" y1="2.8" x2="11.3" y2="1.8"/>
	<line class="st0" x1="2.8" y1="5.1" x2="2.8" y2="7.4"/>
</g>
<g id="Capa_2">
	<g>
		<polygon class="st1" points="13.2,12.8 23.7,7.4 13.2,2.8 2.8,7.4 		"/>
		<line class="st1" x1="13.2" y1="12.8" x2="13.2" y2="24.4"/>
		<polyline class="st1" points="13.2,24.4 2.8,19 2.8,7.4 		"/>
		<polyline class="st1" points="23.7,7.4 23.7,19 13.2,24.4 		"/>
	</g>
</g>
</svg>
