<?xml version="1.0" encoding="utf-8"?>
<!-- Generator: Adobe Illustrator 24.3.0, SVG Export Plug-In . SVG Version: 6.00 Build 0)  -->
<svg version="1.1" id="Layer_1" xmlns="http://www.w3.org/2000/svg" xmlns:xlink="http://www.w3.org/1999/xlink" x="0px" y="0px"
	 viewBox="0 0 400 400" style="enable-background:new 0 0 400 400;" xml:space="preserve">
<style type="text/css">
	.st0{display:none;fill:#FF7F18;}
	.st1{display:none;fill:#D6570C;}
	.st2{display:none;fill:#FFFFFF;}
	.st3{display:none;fill:#2AA9E0;}
	.st4{display:none;fill:#016FBA;}
	.st5{display:none;fill:#BC8DFF;}
	.st6{display:none;fill:#7B55B7;}
	.st7{display:none;fill:#FF5A9D;}
	.st8{display:none;fill:#D63677;}
	.st9{display:none;fill:#FFCC00;}
	.st10{display:none;fill:#CC9900;}
	.st11{display:none;fill:#66FF66;}
	.st12{display:none;fill:#339933;}
	.st13{display:none;fill:#E34C26;}
	.st14{display:none;fill:#F0642A;}
	.st15{display:none;fill:url(#SVGID_1_);}
	.st16{display:none;fill:url(#SVGID_2_);}
	.st17{fill:#09A1A1;}
	.st18{fill:#001717;}
	.st19{fill:#015051;}
	.st20{fill:#016B6B;}
	.st21{fill:#002122;}
	.st22{fill:#013535;}
	.st23{fill:#FFFFFF;}
</style>
<path class="st0" d="M-1262.5-1265.5h2925v2930h-2925V-1265.5z"/>
<path class="st1" d="M-986.5-994.5h2373v2383h-2373V-994.5z"/>
<path class="st2" d="M-224.9,406.1l-104.6,344.5h-229L-168.9-465h283.2l395,1215.6H271.2l-110-344.5H-224.9L-224.9,406.1z
	 M123.1,238.4L27.5-61C4.1-134.9-15.8-217.9-33.8-288.2h-3.6c-18,70.3-36.1,155.1-57.7,227.2l-93.8,299.4H123.1z M896.8-373
	c0,66.7-48.7,119-126.2,119C696.7-254,648-306.3,648-373c0-68.5,50.5-120.8,124.4-120.8C848.1-493.8,895-441.5,896.8-373z
	 M660.6,750.6v-878.3h223.6v878.3L660.6,750.6L660.6,750.6z"/>
<path class="st3" d="M-1264.5-1265.5h2931v2931h-2931V-1265.5z"/>
<path class="st4" d="M-988.5-989.5h2379v2379h-2379V-989.5z"/>
<path class="st2" d="M-528.7-445.4c79.4-14.4,189.4-25.2,339.1-25.2c162.4,0,281.4,34.3,359,99.2c72.1,59.5,119.1,155.1,119.1,268.8
	c0,115.4-36.1,211.1-104.6,276C95.5,261.8-43.4,303.3-200.3,303.3c-41.5,0-79.4-1.8-108.2-7.2v458.2h-220.2V-445.4z M-308.6,121
	c27.1,7.2,63.1,9,108.2,9c166,0,267-81.2,267-223.7c0-135.3-93.8-207.4-247.1-207.4c-61.3,0-104.6,5.4-128.1,10.8V121z M421.9,550.3
	c50.5,30.7,146.1,63.1,225.5,63.1c97.4,0,140.7-39.7,140.7-97.4c0-59.5-36.1-90.2-144.3-128.1c-171.4-59.5-243.5-153.3-241.7-256.1
	c0-155.1,128.1-276,331.9-276c97.4,0,182.2,25.2,232.7,52.3L923.4,65c-37.9-21.7-108.2-50.5-185.8-50.5c-79.4,0-122.7,37.9-122.7,92
	c0,55.9,41.5,83,153.3,122.7c158.7,57.7,232.7,138.9,234.5,268.8c0,158.7-124.4,274.2-357.2,274.2c-106.4,0-202-25.2-267-61.3
	L421.9,550.3L421.9,550.3z"/>
<path class="st5" d="M-1272.5-1273.5h2945v2945h-2945V-1273.5z"/>
<path class="st6" d="M-995.5-996.5h2391v2391h-2391V-996.5z"/>
<path class="st2" d="M-455.1,409.5l-105.1,346.1h-230.1l391.4-1221.3h284.5L282.4,755.6H43.2L-67.3,409.5H-455.1z M-105.3,241
	l-96-300.8c-23.6-74.3-43.5-157.7-61.6-228.3h-3.6c-18.1,70.7-36.2,155.8-58,228.3L-418.7,241H-105.3z M577.7,376.9
	c5.4,159.4,130.5,228.3,271.8,228.3c103.3,0,177.6-14.5,244.6-39.9l32.6,154c-76.1,30.8-181.2,54.4-308,54.4
	c-286.3,0-454.8-175.8-454.8-445.8c0-244.6,148.6-474.7,431.3-474.7c286.3,0,380.5,235.6,380.5,429.5c0,41.7-3.6,74.3-7.2,94.2
	L577.7,376.9L577.7,376.9z M965.5,221.1c1.8-81.5-34.4-215.6-183-215.6c-137.7,0-195.7,125-204.8,215.6H965.5z"/>
<path class="st7" d="M-1274.5-1273.5h2943v2943h-2943V-1273.5z"/>
<path class="st8" d="M-997.5-996.5h2389v2389h-2389V-996.5z"/>
<path class="st2" d="M-213.3-466.4V754.4h-222.8V-466.4H-213.3L-213.3-466.4z M846.2-531.6V506.2c0,90.6,3.6,188.4,7.2,248.1H654.2
	l-9-139.5h-3.6c-52.5,97.8-159.4,159.4-288,159.4c-210.1,0-376.7-179.3-376.7-451C-24.9,28,159.8-147.7,371.8-147.7
	c121.3,0,208.3,50.7,248.1,115.9h3.6v-499.8H846.2z M623.5,240c0-18.1-1.8-39.8-5.4-58c-19.9-86.9-90.6-157.6-192-157.6
	C283,24.4,203.3,151.2,203.3,316c0,161.2,79.7,278.9,221,278.9c90.6,0,170.3-61.6,192-157.6c5.4-19.9,7.2-41.7,7.2-65.2L623.5,240
	L623.5,240z"/>
<path class="st9" d="M-1273.5-1273.5h2947v2947h-2947V-1273.5z"/>
<path class="st10" d="M-996.5-996.5h2393v2393h-2393V-996.5z"/>
<path class="st9" d="M337.5-265.5H37.3l-115.5-756H453L337.5-265.5z"/>
<path class="st9" d="M111.5-1273.5h151v2670h-151V-1273.5z"/>
<path class="st9" d="M254.9,1430.5L120,1362.4l1209-2392.9l134.9,68.1L254.9,1430.5z"/>
<path class="st9" d="M220.9,1469.6L183,1323.3l1305.3-337.9l37.9,146.3L220.9,1469.6z"/>
<path class="st9" d="M234.9,1455.2l-95-117.6L1536.5,210l94.9,117.6L234.9,1455.2z"/>
<path class="st9" d="M131.2,1430.5L-1077.9-962.4l134.9-68.1L266.1,1362.4L131.2,1430.5z"/>
<path class="st9" d="M165.2,1469.6l-1305.4-337.9l37.9-146.3l1305.4,337.9L165.2,1469.6z"/>
<path class="st9" d="M151.1,1455.2L-1245.4,327.6l94.9-117.6L246.1,1337.6L151.1,1455.2z"/>
<path class="st11" d="M-1273.5-1273.5h2947v2947h-2947V-1273.5z"/>
<path class="st12" d="M-996.5-996.5h2393v2393h-2393V-996.5z"/>
<path class="st11" d="M337.5-265.5H37.3l-115.5-756H453L337.5-265.5z M-694.5,1194.5h1789v152h-1789V1194.5z M-694.5,993.5h1789v151
	h-1789V993.5z M-694.5,791.5h1789v152h-1789V791.5z M-694.5,590.5h1789v151h-1789V590.5z M-694.5,388.5h1789v152h-1789V388.5z
	 M-517.5,187.5h1435v151h-1435V187.5z M-316.5-14.5h1033v152h-1033V-14.5z M-114.5-215.5h629v151h-629V-215.5z"/>
<path class="st13" d="M200.9,1676.3l-1059.3-298.4l-235.1-2648.4h2590.6l-236,2648.4L200.9,1676.3z"/>
<path class="st13" d="M600.4,301.4L565,727.3l-363.9,97.3l-1.2-0.3V301.4H600.4z"/>
<path class="st14" d="M201.5-1064.5l-0.2,2518.7l853.8-245.2l217.7-2273.5H201.5z"/>
<linearGradient id="SVGID_1_" gradientUnits="userSpaceOnUse" x1="-621.7" y1="-1774.5499" x2="1022.2" y2="-1774.5499" gradientTransform="matrix(1 0 0 1 0 1920)">
	<stop  offset="0.5" style="stop-color:#EAEAEA"/>
	<stop  offset="0.5" style="stop-color:#ECECEC"/>
	<stop  offset="0.5" style="stop-color:#F3F3F3"/>
	<stop  offset="0.5" style="stop-color:#FEFEFE"/>
	<stop  offset="0.5" style="stop-color:#FFFFFF"/>
</linearGradient>
<path class="st15" d="M-523.2,207.4l-98.5-986.6h1643.9l-35.4,328.4H-261.3l28.1,328.4H957.9L869.4,883.2l-667,186.9l-671.3-186.8
	l-44.5-510l332.9,0.2l17.3,258.4l363.6,96.9l365.1-97l35.3-425.9L-523.2,207.4z"/>
<path class="st4" d="M199.9,1673.3l-1059.3-298.4l-235.1-2648.4h2590.6l-236,2648.4L199.9,1673.3z"/>
<path class="st3" d="M200.5-1067.5l-0.2,2518.7l853.8-245.2l217.7-2273.5H200.5z"/>
<linearGradient id="SVGID_2_" gradientUnits="userSpaceOnUse" x1="-619.5" y1="-1779.2001" x2="1023.5" y2="-1779.2001" gradientTransform="matrix(1 0 0 1 0 1920)">
	<stop  offset="0.5" style="stop-color:#EAEAEA"/>
	<stop  offset="0.5" style="stop-color:#ECECEC"/>
	<stop  offset="0.5" style="stop-color:#F3F3F3"/>
	<stop  offset="0.5" style="stop-color:#FEFEFE"/>
	<stop  offset="0.5" style="stop-color:#FFFFFF"/>
</linearGradient>
<path class="st16" d="M-586-453.9l-33.5-328.6h1643v0.2l-35.7,325.5L328.4-125.5l630.1,0.2L870.4,877.2l-669,186.9l-668.3-186.8
	l-44.5-507.5l332.9-0.1l17.3,256.2l362.6,96.9l365.1-97l35.3-425.9l-1123,1.5l-32.7-326.8L88.5-456.8L-586-453.9z"/>
<path class="st17" d="M0,0h400v400H0V0z"/>
<g id="XMLID_2_">
	<path class="st18" d="M186.2,131l-0.4-0.1V95.7l0.4-0.4l0.1-0.2l129.8,84.1L186.2,131L186.2,131z M186.2,227.6L186.2,227.6
		l129.9-48.3l-129.8,84.1l-0.1-0.2h-0.4v-35.5L186.2,227.6z"/>
	<path class="st19" d="M246,39.5l70.1,139.8L186.3,95.1l-0.2-0.1l0-0.1l59.4-55.1L246,39.5z M316.1,179.3L246,319.1l-0.4-0.4
		l-59.4-55.1l0-0.1l0.1-0.1L316.1,179.3z"/>
	<path class="st20" d="M186.2,95l0.2,0.1l-0.1,0.2H91.1L90.3,95L114,39.8l0.1,0.1h131.5L186.2,95L186.2,95z M186.2,95.4l-0.4,0.4
		v-0.4H186.2z M186.2,263.3l0.1,0.2l-0.1,0.1l0,0.1l59.4,55.1H114.1l-0.1,0.1l-23.7-55.3l0.8-0.3h94.3l0.4,0.4v-0.4H186.2z"/>
	<path class="st19" d="M186.2,131l129.9,48.3v0.1l-129.9,48.3l0,0l-0.4,0.1v-96.9L186.2,131L186.2,131z"/>
	<path class="st20" d="M185.8,263.3v0.4l-0.4-0.4H185.8z"/>
	<path class="st21" d="M185.8,227.8v35.5h-0.4l-27-25.2L185.8,227.8z"/>
	<path class="st20" d="M185.8,227.6v0.1L158.3,238L96,179.4v-0.2l62.3-58.7l27.5,10.3v48.6V227.6z"/>
	<path class="st21" d="M185.8,95.7v35.1l-27.5-10.3L185.8,95.7z"/>
	<path class="st22" d="M185.8,95.4v0.4l-27.5,24.8L91.1,95.4H185.8z M185.4,263.3H91.1l67.3-25.2L185.4,263.3z"/>
</g>
<path class="st23" d="M141.7,341.1h10.9l3.5,13.6l1.2,5.4h0.2l1.2-5.4l3.3-13.6h10.9v41.8h-8.9V373c0-1.2,0.1-2.8,0.2-4.7
	c0.1-1.9,0.2-3.9,0.4-5.9c0.1-2,0.3-4,0.4-5.9c0.2-1.9,0.3-3.4,0.4-4.7h-0.2l-3.5,12.4l-2.2,7.5h-4.8l-2.2-7.5l-3.3-12.4H149
	c0.1,1.2,0.3,2.8,0.4,4.7c0.2,1.9,0.3,3.9,0.4,5.9c0.1,2,0.2,4,0.4,5.9c0.1,1.9,0.2,3.5,0.2,4.7v9.8h-8.8L141.7,341.1z M208.7,374
	h-11.5l-2.1,8.9h-11.3l12.6-41.8h13.4l12.6,41.8h-11.7L208.7,374z M206.7,365.4l-0.6-2.9c-0.5-2-1-4.2-1.5-6.6
	c-0.5-2.4-1-4.6-1.5-6.7h-0.3c-0.5,2.1-1,4.4-1.5,6.7c-0.5,2.3-1,4.5-1.5,6.5l-0.6,2.9H206.7L206.7,365.4z M242.2,361.4l-11.4-20.3
	h12.4l3.3,6.8c0.5,1,1,2,1.5,3.2c0.5,1.1,1.1,2.4,1.7,3.8h0.3c0.5-1.4,0.9-2.6,1.4-3.8c0.5-1.1,0.9-2.2,1.4-3.2l3-6.8h11.8
	l-11.4,20.8l12.1,21h-12.4l-3.9-7.5c-0.6-1.1-1.2-2.2-1.6-3.3c-0.5-1.1-1-2.3-1.6-3.6h-0.3c-0.5,1.3-1,2.5-1.5,3.6
	c-0.5,1.1-1,2.2-1.5,3.3l-3.6,7.5h-11.8L242.2,361.4L242.2,361.4z"/>
</svg>
