<?xml version="1.0" encoding="utf-8"?>
<!-- Generator: Adobe Illustrator 24.3.0, SVG Export Plug-In . SVG Version: 6.00 Build 0)  -->
<svg version="1.1" id="Capa_1" xmlns="http://www.w3.org/2000/svg" xmlns:xlink="http://www.w3.org/1999/xlink" x="0px" y="0px"
	 viewBox="0 0 400 400" style="enable-background:new 0 0 400 400;" xml:space="preserve">
<style type="text/css">
	.st0{fill:url(#SVGID_1_);}
	.st1{fill:#FF7F18;}
</style>
<radialGradient id="SVGID_1_" cx="-943.6754" cy="411.1581" r="0.1216" gradientTransform="matrix(2291.6716 0 0 -2218.7549 2162731.25 912360.5)" gradientUnits="userSpaceOnUse">
	<stop  offset="0" style="stop-color:#423325;stop-opacity:0.98"/>
	<stop  offset="1" style="stop-color:#1C0A00"/>
</radialGradient>
<path class="st0" d="M16.7,21.7h366.7v356.7H16.7V21.7z"/>
<path class="st1" d="M16.7,21.7h366.7v356.7H16.7V21.7z M0,395h400V5H0V395z M262,144c0-1.3,0.5-2,2-2h26.2c1.3,0,2,0.5,2,2v131.5
	c0,1.3-0.3,2-2,2h-25.8c-1.7,0-2.2-0.8-2.2-2.2V144L262,144L262,144z M260.2,106.2c0-10.7,7.5-17,17-17c10.2,0,17,6.8,17,17
	c0,11-7.2,17-17.3,17C267.2,123.2,260.2,117.2,260.2,106.2z M185.2,198.8c-4.7-18.5-15.7-58.8-19.8-78.3H165
	c-3.5,19.5-12.3,52.5-19.3,78.3H185.2z M138.8,225.8l-13.2,50c-0.3,1.3-0.8,1.7-2.5,1.7H98.7c-1.7,0-2-0.5-1.7-2.5l47.3-165.7
	c0.8-3,1.3-5.7,1.7-13.8c0-1.2,0.5-1.7,1.3-1.7h35c1.2,0,1.7,0.3,2,1.7l53,179.8c0.3,1.3,0,2.2-1.3,2.2h-27.7
	c-1.3,0-2.2-0.3-2.5-1.5l-13.7-50.2H138.8L138.8,225.8z"/>
</svg>
