<?xml version="1.0" encoding="utf-8"?>
<!-- Generator: Adobe Illustrator 24.3.0, SVG Export Plug-In . SVG Version: 6.00 Build 0)  -->
<svg version="1.1" id="Capa_1" xmlns="http://www.w3.org/2000/svg" xmlns:xlink="http://www.w3.org/1999/xlink" x="0px" y="0px"
	 viewBox="0 0 400 400" style="enable-background:new 0 0 400 400;" xml:space="preserve">
<style type="text/css">
	.st0{fill:url(#SVGID_1_);}
	.st1{fill:#D8A1FF;}
</style>
<radialGradient id="SVGID_1_" cx="-943.6732" cy="411.1601" r="0.1216" gradientTransform="matrix(2291.6716 0 0 -2218.7549 2162726.5 912365.0625)" gradientUnits="userSpaceOnUse">
	<stop  offset="0" style="stop-color:#442F55;stop-opacity:0.98"/>
	<stop  offset="1" style="stop-color:#12002C"/>
</radialGradient>
<path class="st0" d="M16.7,21.7h366.7v356.7H16.7V21.7z"/>
<path class="st1" d="M16.7,21.7h366.7v356.7H16.7V21.7z M0,395h400V5H0V395z M283,193c8.5,0,11.5,0,12.3-0.3c0-1.2,0.3-2,0.3-2.8
	c0-9-4.3-25.7-21.7-25.7c-16,0-22.8,14-24.5,28.8H283L283,193z M249.2,215.8c0.3,22.5,11,37.7,36.3,37.7c9.8,0,18.3-1.3,27.2-5.2
	c1.2-0.5,2-0.3,2,1.2v20.8c0,1.7-0.5,2.5-1.7,3.3c-8.8,4.3-19.8,6.3-33.5,6.3c-44,0-60.5-32.5-60.5-68.7c0-39.3,20.3-71.5,56.2-71.5
	c36.3,0,49,30.5,49,55.3c0,8-0.5,14.5-1.3,17.7c-0.3,1.3-0.8,1.8-2.2,2.2c-3.3,0.5-13.2,1.2-27.8,1.2h-43.7V215.8z M159.8,198.8
	c-4.7-18.5-16-58.8-20.2-78.3h-0.3c-3.5,19.5-12.7,52.5-19.5,78.3H159.8z M113,225.8l-13.2,49.8c-0.3,1.3-0.8,1.8-2.5,1.8H72.8
	c-1.7,0-2-0.5-1.7-2.5l47.3-165.5c0.8-3,1.3-5.3,1.7-13.7c0-1.2,0.5-1.7,1.3-1.7h35c1.2,0,1.7,0.3,2,1.7l53,179.5
	c0.3,1.3,0,2.2-1.3,2.2h-27.5c-1.3,0-2.2-0.5-2.5-1.7l-13.7-50L113,225.8L113,225.8z"/>
</svg>
