<?xml version="1.0" encoding="utf-8"?>
<!-- Generator: Adobe Illustrator 24.3.0, SVG Export Plug-In . SVG Version: 6.00 Build 0)  -->
<svg version="1.1" id="Layer_1" xmlns="http://www.w3.org/2000/svg" xmlns:xlink="http://www.w3.org/1999/xlink" x="0px" y="0px"
	 viewBox="0 0 400 400" style="enable-background:new 0 0 400 400;" xml:space="preserve">
<style type="text/css">
	.st0{fill:#0ACF83;}
	.st1{fill:#A259FF;}
	.st2{fill:#F24E1E;}
	.st3{fill:#FF7262;}
	.st4{fill:#1ABCFE;}
</style>
<desc>Created using Figma</desc>
<path id="path0_fill" class="st0" d="M133.3,400c36.8,0,66.7-29.9,66.7-66.7v-66.7h-66.7c-36.8,0-66.7,29.9-66.7,66.7
	S96.5,400,133.3,400z"/>
<path id="path1_fill" class="st1" d="M66.7,200c0-36.8,29.9-66.7,66.7-66.7H200v133.3h-66.7C96.5,266.7,66.7,236.8,66.7,200z"/>
<path id="path1_fill_1_" class="st2" d="M66.7,66.7C66.7,29.9,96.5,0,133.3,0H200v133.3h-66.7C96.5,133.3,66.7,103.5,66.7,66.7z"/>
<path id="path2_fill" class="st3" d="M200,0h66.7c36.8,0,66.7,29.9,66.7,66.7s-29.9,66.7-66.7,66.7H200V0z"/>
<path id="path3_fill" class="st4" d="M333.3,200c0,36.8-29.9,66.7-66.7,66.7S200,236.8,200,200s29.9-66.7,66.7-66.7
	C303.5,133.3,333.3,163.2,333.3,200z"/>
</svg>
