<?xml version="1.0" encoding="utf-8"?>
<!-- Generator: Adobe Illustrator 24.3.0, SVG Export Plug-In . SVG Version: 6.00 Build 0)  -->
<svg version="1.1" id="Capa_1" xmlns="http://www.w3.org/2000/svg" xmlns:xlink="http://www.w3.org/1999/xlink" x="0px" y="0px"
	 viewBox="0 0 400 400" style="enable-background:new 0 0 400 400;" xml:space="preserve">
<style type="text/css">
	.st0{fill:#DC395F;}
	.st1{fill:#FFFFFF;}
</style>
<path class="st0" d="M363.7,0H36.3C16.2,0,0,16.2,0,36.3v327.5c0,20,16.2,36.3,36.3,36.3h327.5c20,0,36.3-16.2,36.3-36.3V36.3
	C400,16.2,383.8,0,363.7,0"/>
<path class="st1" d="M133.7,125.9c13.3,0,24.4-10.4,24.4-24.1c0-13.7-11.1-24.1-24.4-24.1s-24.4,10.4-24.4,24.1
	C109.2,115.4,120.4,125.9,133.7,125.9 M83,254.8c-1.4,6.1-2.2,12.7-2.2,18.1c0,21.2,11.5,35.3,35.9,35.3c20.3,0,36.7-12,48.5-31.5
	l-7.2,29h40.2l23-92.2c5.7-23.4,16.9-35.5,33.8-35.5c13.3,0,21.6,8.3,21.6,21.9c0,4-0.4,8.3-1.8,12.9L263,255.2
	c-1.8,6.1-2.5,12.2-2.5,18c0,20.1,11.9,34.9,36.6,34.9c21.2,0,38.1-13.6,47.4-46.4l-15.8-6.1c-7.9,21.9-14.7,25.9-20.1,25.9
	c-5.4,0-8.3-3.6-8.3-10.8c0-3.2,0.7-6.8,1.8-11.1l11.5-41.3c2.9-9.7,4-18.3,4-26.2c0-30.9-18.7-47-41.3-47
	c-21.2,0-42.8,19.1-53.5,39.3l7.9-36.1h-61.4l-8.6,31.8h28.7l-17.7,70.9c-13.9,30.9-39.4,31.4-42.6,30.7c-5.3-1.2-8.6-3.2-8.6-10
	c0-3.9,0.7-9.6,2.5-16.4l27-106.9H81.6L73,179.9h28.4L83,254.8"/>
</svg>
