<svg width="258" height="33" viewBox="0 0 258 33" fill="none" xmlns="http://www.w3.org/2000/svg">
<g clip-path="url(#clip0)">
<path fill-rule="evenodd" clip-rule="evenodd" d="M0.502365 6.35333C0.145172 6.57658 6.08278e-05 6.74401 6.08132e-05 7.07889L6.07156e-05 9.31136C6.06735e-05 10.2748 0.790031 10.5314 1.72403 10.8348C1.87216 10.8829 2.02392 10.9322 2.17672 10.9857C3.29295 11.3764 3.479 12.0275 3.5162 12.2694C3.66503 12.4926 4.04083 13.754 4.35338 17.0134C4.74406 21.0876 9.43225 31.9151 20.0365 31.9151C30.6407 31.9151 38.0637 28.399 39.9055 12.6042C39.2357 11.5438 39.1799 10.3718 39.1799 10.0927C39.1799 9.81366 39.2915 8.13931 43.31 8.13931C47.3242 8.13931 47.6069 9.36455 47.7744 10.0904L47.7749 10.0927C47.9216 10.7285 47.4255 11.5357 46.9625 12.289L46.9625 12.2892C46.8971 12.3955 46.8324 12.5007 46.7703 12.6043C47.1774 16.6752 47.9222 18.7511 48.5886 20.6086L48.589 20.6096C48.6534 20.7891 48.717 20.9665 48.7795 21.1435C51.5605 29.0129 58.8257 31.7477 65.0766 31.7477C71.3275 31.7477 74.9735 30.0551 78.2482 26.7804C81.1724 23.8562 82.7414 15.8303 83.3258 12.8409C83.433 12.2928 83.507 11.9141 83.5503 11.7671C83.7735 11.008 85.3176 10.5578 86.0618 10.4276C86.5529 10.4276 86.7501 9.75785 86.7874 9.42298L86.7874 7.58119C86.7874 6.85564 86.7874 6.29245 86.0618 5.96265C83.6061 4.84641 74.7878 2.00001 65.8021 2.00001C56.8164 2.00002 51.4027 4.62317 49.0028 5.96265C45.8773 5.51616 44.5937 5.46034 43.31 5.46034C42.0263 5.46034 40.5752 5.46034 38.0637 5.96265C33.7662 3.8418 29.7477 2.05583 20.3714 2.05583C10.995 2.05583 0.94886 6.07427 0.502365 6.35333ZM36.4452 9.70204C34.17 4.37702 27.9618 3.67437 21.4318 3.67437C14.9018 3.67437 8.97464 4.67898 7.14401 8.69743C5.10998 13.1624 5.93744 17.6581 7.42308 21.4783C8.98579 25.4968 12.6136 30.4082 21.4318 30.4082C29.8015 30.4082 32.952 26.2228 33.7666 25.1406C33.8102 25.0826 33.8472 25.0335 33.8778 24.9945C35.1057 23.4317 38.7204 15.0271 36.4452 9.70204ZM65.4813 3.67437C58.9035 3.67437 52.6499 4.37849 50.358 9.71462C48.0661 15.0508 51.7073 23.473 52.9442 25.039C52.9751 25.0781 53.0123 25.1273 53.0563 25.1854C53.8768 26.2699 57.0503 30.464 65.4813 30.464C74.3641 30.464 78.0185 25.5423 79.5926 21.5155C81.0891 17.6873 81.9227 13.1822 79.8737 8.70792C78.0297 4.68108 72.0591 3.67437 65.4813 3.67437Z" fill="#4E4E4E"/>
<path d="M83.5503 11.7671C83.2712 12.7159 81.7085 23.3201 78.2482 26.7804L83.5503 11.7671Z" fill="#4E4E4E"/>
<path d="M28.5286 12.5742L28.5286 24.0313C28.5286 25.0612 28.5058 25.6901 28.4602 25.918C28.4146 26.1367 28.287 26.2416 28.0774 26.2324C27.9407 26.2233 27.8359 26.1823 27.7629 26.1094L27.4622 25.7539L15.9368 12.5742L15.8 12.4238C15.7454 12.3692 15.6816 12.3418 15.6086 12.3418C15.4355 12.3418 15.3489 12.5469 15.3489 12.957L15.3489 22.2266L15.3352 22.8008L15.3762 23.7715C15.44 24.3731 15.595 24.7878 15.8411 25.0156C16.0872 25.2435 16.5702 25.4121 17.2903 25.5215C17.5911 25.558 17.7415 25.6764 17.7415 25.877C17.7415 26.0593 17.6458 26.1504 17.4543 26.1504C17.3267 26.1504 17.19 26.1413 17.0442 26.1231C16.9439 26.1048 16.5474 26.0775 15.8547 26.041L14.4602 25.9727L13.804 26C13.4485 26 13.1112 26.0228 12.7922 26.0684C12.5553 26.1048 12.3866 26.1231 12.2864 26.1231C12.0494 26.1231 11.9218 26.0365 11.9036 25.8633C11.8944 25.7266 12.0221 25.6126 12.2864 25.5215C13.052 25.2572 13.567 24.9063 13.8313 24.4688C14.1047 24.0222 14.2415 23.3067 14.2415 22.3223L14.2415 13.0254C14.2415 11.4486 13.9908 10.209 13.4895 9.30666C12.9882 8.3952 12.2636 7.87567 11.3157 7.74806C11.0696 7.7116 10.9465 7.60679 10.9465 7.43361C10.9465 7.26043 11.0468 7.17384 11.2473 7.17384C11.2929 7.17384 11.3658 7.1784 11.4661 7.18752L12.0266 7.20119L12.9426 7.22853L13.1614 7.21486C13.3801 7.20574 13.5487 7.20119 13.6672 7.20119C13.8951 7.20119 14.123 7.33335 14.3508 7.59767L26.929 21.8438C27.1295 22.0716 27.2571 22.181 27.3118 22.1719C27.4029 22.1628 27.453 22.0762 27.4622 21.9121L27.4622 15.1445L27.4758 13.2988L27.3118 10.1543C27.2206 9.37957 26.9928 8.8327 26.6282 8.51369C26.2727 8.18556 25.6256 7.94403 24.6868 7.78908C24.4224 7.7435 24.2903 7.62957 24.2903 7.44728C24.2903 7.2741 24.4224 7.18752 24.6868 7.18752C24.8053 7.18752 24.9967 7.20119 25.261 7.22853C25.8899 7.30145 26.733 7.33791 27.7903 7.33791C28.3554 7.33791 28.8066 7.31056 29.1438 7.25587C29.4355 7.20119 29.6588 7.17384 29.8137 7.17384C30.0507 7.17384 30.1783 7.26955 30.1965 7.46095C30.2056 7.57944 30.1145 7.66603 29.9231 7.72072C29.3671 7.85744 28.998 8.0853 28.8157 8.40431C28.6425 8.72332 28.5559 9.32033 28.5559 10.1953L28.5559 11.6719L28.5286 12.5742Z" fill="#19D373"/>
<path d="M119.995 14.4922L119.995 24.3125C119.995 25.1953 119.976 25.7344 119.937 25.9297C119.898 26.1172 119.788 26.2071 119.609 26.1992C119.491 26.1914 119.402 26.1563 119.339 26.0938L119.081 25.7891L109.202 14.4922L109.085 14.3633C109.038 14.3164 108.984 14.293 108.921 14.293C108.773 14.293 108.698 14.4688 108.698 14.8203L108.698 22.7657L108.687 23.2578L108.722 24.0899C108.777 24.6055 108.909 24.961 109.12 25.1563C109.331 25.3516 109.745 25.4961 110.363 25.5899C110.62 25.6211 110.749 25.7227 110.749 25.8946C110.749 26.0508 110.667 26.1289 110.503 26.1289C110.394 26.1289 110.277 26.1211 110.152 26.1055C110.066 26.0899 109.726 26.0664 109.132 26.0352L107.937 25.9766L107.374 26C107.07 26 106.781 26.0196 106.507 26.0586C106.304 26.0899 106.159 26.1055 106.073 26.1055C105.87 26.1055 105.761 26.0313 105.745 25.8828C105.738 25.7657 105.847 25.668 106.073 25.5899C106.73 25.3633 107.171 25.0625 107.398 24.6875C107.632 24.3047 107.749 23.6914 107.749 22.8477L107.749 14.8789C107.749 13.5274 107.534 12.4649 107.105 11.6914C106.675 10.9102 106.054 10.4649 105.241 10.3555C105.031 10.3242 104.925 10.2344 104.925 10.086C104.925 9.93753 105.011 9.86331 105.183 9.86331C105.222 9.86331 105.284 9.86722 105.37 9.87503L105.851 9.88675L106.636 9.91019L106.823 9.89847C107.011 9.89066 107.156 9.88675 107.257 9.88675C107.452 9.88675 107.648 10 107.843 10.2266L118.624 22.4375C118.796 22.6328 118.906 22.7266 118.952 22.7188C119.031 22.711 119.073 22.6367 119.081 22.4961L119.081 16.6953L119.093 15.1133L118.952 12.418C118.874 11.7539 118.679 11.2852 118.366 11.0117C118.062 10.7305 117.507 10.5235 116.702 10.3907C116.476 10.3516 116.363 10.2539 116.363 10.0977C116.363 9.94925 116.476 9.87503 116.702 9.87503C116.804 9.87503 116.968 9.88675 117.195 9.91019C117.734 9.97269 118.456 10.0039 119.363 10.0039C119.847 10.0039 120.234 9.9805 120.523 9.93362C120.773 9.88675 120.964 9.86331 121.097 9.86331C121.3 9.86331 121.409 9.94534 121.425 10.1094C121.433 10.211 121.355 10.2852 121.191 10.3321C120.714 10.4492 120.398 10.6446 120.241 10.918C120.093 11.1914 120.019 11.7032 120.019 12.4532V13.7188L119.995 14.4922ZM176.116 12.8047C176.116 12.0157 175.984 11.4375 175.718 11.0703C175.452 10.7032 175.011 10.4883 174.394 10.4258C174.136 10.4024 174.007 10.3203 174.007 10.1797C174.007 10.0235 174.109 9.94534 174.312 9.94534L175.238 9.99222C175.331 10 175.605 10.0039 176.058 10.0039C176.847 10.0039 177.46 9.98441 177.898 9.94534L178.988 9.83987C179.456 9.80081 179.972 9.78128 180.534 9.78128C183.738 9.78128 186.14 10.586 187.741 12.1953C189.202 13.6641 189.933 15.543 189.933 17.8321C189.933 19.3086 189.613 20.6641 188.972 21.8985C188.331 23.1328 187.441 24.1055 186.3 24.8164C184.863 25.7149 183.292 26.1641 181.589 26.1641C181.386 26.1641 181.027 26.1446 180.511 26.1055C179.464 26.0352 178.554 26 177.781 26C176.945 26 176.218 26.043 175.601 26.1289C175.32 26.168 175.097 26.1914 174.933 26.1992C174.659 26.2149 174.523 26.125 174.523 25.9297C174.523 25.7969 174.632 25.7071 174.851 25.6602C175.382 25.5508 175.726 25.3555 175.882 25.0742C176.038 24.793 176.116 24.2188 176.116 23.3516L176.116 12.8047ZM177.909 11.8555L177.909 23.9375C177.909 24.4141 178.148 24.7422 178.624 24.9219C179.038 25.0782 179.566 25.2149 180.206 25.3321C180.855 25.4492 181.402 25.5078 181.847 25.5078C183.183 25.5078 184.386 25.1719 185.456 24.5C187.269 23.375 188.175 21.461 188.175 18.7578C188.175 17.2891 187.89 15.9375 187.32 14.7032C186.757 13.4688 185.98 12.5 184.988 11.7969C183.777 10.9297 182.304 10.4961 180.57 10.4961C179.335 10.4961 178.55 10.6289 178.214 10.8946C178.011 11.0508 177.909 11.3711 177.909 11.8555Z" fill="#19D373"/>
<path d="M128.948 20.8555V19.4024C128.948 18.5039 128.781 17.8828 128.445 17.5391C127.991 17.0703 127.382 16.836 126.616 16.836C125.585 16.836 125.07 17.2735 125.07 18.1485C125.07 18.4063 125.12 18.7032 125.222 19.0391C125.269 19.1797 125.296 19.3047 125.304 19.4141C125.312 19.5547 125.234 19.625 125.07 19.625C124.702 19.625 124.366 19.5469 124.062 19.3907C123.765 19.2344 123.616 19.0625 123.616 18.875C123.616 18.3907 123.878 17.8672 124.402 17.3047C125.105 16.5469 126.038 16.168 127.202 16.168C128.265 16.168 129.089 16.4063 129.675 16.8828C130.261 17.3516 130.554 18.0157 130.554 18.875V23.4688C130.554 24.1953 130.64 24.7149 130.812 25.0274C130.991 25.3321 131.288 25.4844 131.702 25.4844C131.82 25.4844 131.913 25.4766 131.984 25.461C132.124 25.4219 132.218 25.4024 132.265 25.4024C132.398 25.3946 132.46 25.4492 132.452 25.5664C132.445 25.7071 132.261 25.8516 131.902 26C131.542 26.1407 131.191 26.211 130.847 26.211C130.206 26.211 129.628 25.8164 129.113 25.0274C127.98 25.8867 126.929 26.3164 125.96 26.3164C125.226 26.3164 124.64 26.1211 124.202 25.7305C123.773 25.3321 123.558 24.8008 123.558 24.1367C123.558 23.2383 123.968 22.543 124.788 22.0508C125.609 21.5508 126.995 21.1524 128.948 20.8555ZM128.948 21.3125C127.73 21.4219 126.788 21.6992 126.124 22.1446C125.46 22.5821 125.128 23.1446 125.128 23.8321C125.128 24.3711 125.284 24.8008 125.597 25.1211C125.917 25.4336 126.347 25.5899 126.886 25.5899C127.542 25.5899 128.093 25.375 128.538 24.9453C128.812 24.6719 128.948 24.2383 128.948 23.6446V21.3125ZM138.722 16.168C139.394 16.168 139.991 16.2539 140.515 16.4258C141.046 16.5977 141.312 16.793 141.312 17.0117L141.3 17.3633L141.382 18.2539C141.382 18.668 141.288 18.8828 141.101 18.8985C141.015 18.9063 140.906 18.7891 140.773 18.5469C140.523 18.0938 140.101 17.7032 139.507 17.375C138.921 17.0391 138.351 16.8711 137.796 16.8711C137.031 16.8711 136.406 17.2227 135.921 17.9258C135.437 18.6211 135.195 19.5196 135.195 20.6211C135.195 21.9258 135.566 23.0313 136.308 23.9375C137.058 24.836 137.972 25.2852 139.05 25.2852C139.917 25.2852 140.769 24.9297 141.605 24.2188C141.706 24.1328 141.8 24.086 141.886 24.0782C142.003 24.0625 142.062 24.1172 142.062 24.2422C142.062 24.4141 141.874 24.668 141.499 25.0039C140.531 25.8789 139.366 26.3164 138.007 26.3164C136.757 26.3164 135.71 25.8633 134.866 24.9571C134.031 24.043 133.613 22.9141 133.613 21.5703C133.613 20.0703 134.109 18.7969 135.101 17.75C136.101 16.6953 137.308 16.168 138.722 16.168ZM145.788 18.0313C146.796 16.7891 147.894 16.168 149.081 16.168C150.183 16.168 151.073 16.5469 151.753 17.3047C152.441 18.0625 152.784 19.0547 152.784 20.2813V23.9961C152.784 24.5899 152.882 24.9961 153.077 25.2149C153.273 25.4336 153.687 25.5938 154.32 25.6953C154.531 25.7266 154.636 25.8125 154.636 25.9532C154.636 26.0938 154.531 26.1641 154.32 26.1641C154.226 26.1641 154.034 26.1524 153.745 26.1289C153.167 26.0899 152.671 26.0703 152.257 26.0703C151.57 26.0703 151.062 26.0938 150.734 26.1407C150.546 26.1641 150.425 26.1758 150.37 26.1758C150.159 26.1758 150.05 26.1055 150.042 25.9649C150.034 25.8711 150.113 25.793 150.277 25.7305C150.675 25.5821 150.921 25.4492 151.015 25.3321C151.109 25.2071 151.156 24.9688 151.156 24.6172L151.167 24.2539V20.3516C151.167 19.3594 150.913 18.5742 150.406 17.9961C149.898 17.4102 149.218 17.1172 148.366 17.1172C147.71 17.1172 147.116 17.3242 146.585 17.7383C146.054 18.1524 145.788 18.6172 145.788 19.1328V23.668C145.788 24.4649 145.878 24.9805 146.058 25.2149C146.238 25.4492 146.675 25.6133 147.37 25.7071C147.636 25.7461 147.769 25.8438 147.769 26C147.769 26.1328 147.683 26.1992 147.511 26.1992C147.425 26.1992 147.21 26.1797 146.866 26.1407C146.585 26.1094 145.991 26.0938 145.085 26.0938C144.773 26.0938 144.323 26.1172 143.738 26.1641C143.48 26.1875 143.3 26.1992 143.198 26.1992C143.011 26.1992 142.913 26.1367 142.906 26.0117C142.898 25.8711 142.988 25.7735 143.175 25.7188C143.636 25.5782 143.917 25.418 144.019 25.2383C144.128 25.0586 144.183 24.6328 144.183 23.961L144.183 11.75C144.183 10.7891 143.921 10.3242 143.398 10.3555L142.8 10.3907C142.738 10.3907 142.683 10.3789 142.636 10.3555C142.581 10.3242 142.554 10.2735 142.554 10.2032C142.554 10.0938 142.644 10.0157 142.823 9.96878C143.316 9.85159 143.863 9.64847 144.464 9.35941L145.378 8.92581C145.472 8.87894 145.554 8.8555 145.624 8.8555C145.757 8.8555 145.823 8.94144 145.823 9.11331C145.823 9.16019 145.816 9.25394 145.8 9.39456C145.792 9.52737 145.788 9.72659 145.788 9.99222L145.788 18.0313ZM161.046 16.168C162.452 16.168 163.659 16.6641 164.667 17.6563C165.675 18.6407 166.179 19.8164 166.179 21.1836C166.179 22.668 165.683 23.8946 164.691 24.8633C163.698 25.8321 162.445 26.3164 160.929 26.3164C159.445 26.3164 158.222 25.8477 157.261 24.9102C156.308 23.9649 155.831 22.7578 155.831 21.2891C155.831 19.8672 156.339 18.6602 157.355 17.668C158.37 16.668 159.601 16.168 161.046 16.168ZM160.741 16.6367C159.765 16.6367 158.976 17 158.374 17.7266C157.781 18.4453 157.484 19.3907 157.484 20.5625C157.484 22.0547 157.855 23.3047 158.597 24.3125C159.347 25.3125 160.277 25.8125 161.386 25.8125C162.355 25.8125 163.116 25.4571 163.671 24.7461C164.234 24.0352 164.515 23.0703 164.515 21.8516C164.515 20.3125 164.163 19.0586 163.46 18.0899C162.757 17.1211 161.851 16.6367 160.741 16.6367ZM193.366 20.1758L193.355 20.4336C193.355 21.7696 193.722 22.8946 194.456 23.8086C195.198 24.7149 196.109 25.168 197.187 25.168C198.038 25.168 198.964 24.7852 199.964 24.0196C200.027 23.9727 200.085 23.9453 200.14 23.9375C200.249 23.9297 200.304 23.9922 200.304 24.125C200.304 24.3594 200.031 24.6914 199.484 25.1211C198.468 25.918 197.394 26.3164 196.261 26.3164C194.988 26.3164 193.917 25.8321 193.05 24.8633C192.191 23.8946 191.761 22.6953 191.761 21.2657C191.761 19.9063 192.206 18.7188 193.097 17.7032C193.988 16.6797 195.031 16.168 196.226 16.168C197.531 16.168 198.573 16.711 199.355 17.7969C199.542 18.0625 199.734 18.4219 199.929 18.875C200.124 19.3282 200.222 19.6446 200.222 19.8242C200.222 20.0821 199.968 20.211 199.46 20.211L198.593 20.1992L197.796 20.1758L193.366 20.1758ZM193.413 19.543L197.386 19.543C198.003 19.543 198.312 19.418 198.312 19.168C198.312 18.5586 198.046 17.9922 197.515 17.4688C196.991 16.9453 196.421 16.6836 195.804 16.6836C195.163 16.6836 194.628 16.9414 194.198 17.4571C193.777 17.9649 193.515 18.6602 193.413 19.543ZM205.073 16.168C205.691 16.168 206.222 16.25 206.667 16.4141L207.183 16.5899C207.394 16.668 207.499 16.7891 207.499 16.9532V17.1407C207.499 17.25 207.507 17.3594 207.523 17.4688L207.57 17.9258C207.593 18.0899 207.605 18.2383 207.605 18.3711C207.605 18.6758 207.519 18.8321 207.347 18.8399C207.253 18.8477 207.167 18.7461 207.089 18.5352C206.659 17.3477 205.855 16.7539 204.675 16.7539C204.206 16.7539 203.82 16.8867 203.515 17.1524C203.218 17.418 203.07 17.7539 203.07 18.1602C203.07 18.5899 203.23 18.9375 203.55 19.2032C203.87 19.4688 204.523 19.793 205.507 20.1758C206.484 20.5586 207.159 20.9649 207.534 21.3946C207.917 21.8164 208.109 22.3867 208.109 23.1055C208.109 23.9883 207.781 24.7461 207.124 25.3789C206.476 26.0039 205.698 26.3164 204.792 26.3164C204.144 26.3164 203.441 26.1328 202.683 25.7657C202.503 25.6797 202.39 25.6367 202.343 25.6367L202.038 25.6016C201.859 25.586 201.761 25.4883 201.745 25.3086L201.734 24.8047L201.698 23.3047L201.722 22.9532C201.753 22.7422 201.839 22.6328 201.98 22.625C202.12 22.6172 202.214 22.7344 202.261 22.9766C202.425 23.836 202.741 24.5078 203.21 24.9922C203.687 25.4766 204.257 25.7188 204.921 25.7188C205.491 25.7188 205.956 25.5508 206.316 25.2149C206.683 24.8789 206.866 24.4492 206.866 23.9258C206.866 23.1289 206.429 22.5352 205.554 22.1446L204.523 21.6875C203.585 21.2813 202.921 20.8633 202.531 20.4336C202.14 19.9961 201.945 19.4649 201.945 18.8399C201.945 18.0899 202.245 17.4571 202.847 16.9414C203.448 16.4258 204.191 16.168 205.073 16.168ZM212.433 11.3399C212.62 11.3399 212.812 11.4961 213.007 11.8086L213.288 12.2539C213.366 12.3633 213.406 12.461 213.406 12.5469C213.413 12.7266 213.281 12.9766 213.007 13.2969C212.734 13.6172 212.515 13.7774 212.351 13.7774C212.195 13.7774 211.988 13.6211 211.73 13.3086C211.472 12.9961 211.343 12.75 211.343 12.5703C211.343 12.3907 211.484 12.1407 211.765 11.8203C212.054 11.5 212.277 11.3399 212.433 11.3399ZM213.159 24.0782C213.159 24.6328 213.218 25.0039 213.335 25.1914C213.46 25.3789 213.718 25.5 214.109 25.5547L214.648 25.6133C214.929 25.6524 215.066 25.7539 215.058 25.918C215.05 26.0508 214.945 26.1172 214.741 26.1172C214.609 26.1172 214.355 26.1016 213.98 26.0703C213.769 26.0547 213.495 26.0469 213.159 26.0469L212.409 26.0352L211.554 26.0821C211.398 26.0899 211.277 26.1016 211.191 26.1172C210.988 26.1407 210.847 26.1524 210.769 26.1524C210.558 26.1524 210.452 26.0821 210.452 25.9414C210.452 25.8242 210.523 25.7422 210.663 25.6953L210.886 25.625C211.136 25.5391 211.308 25.3907 211.402 25.1797C211.503 24.9688 211.554 24.6289 211.554 24.1602V19.0508C211.554 18.4024 211.491 17.9805 211.366 17.7852C211.241 17.5899 210.972 17.4922 210.558 17.4922C210.261 17.4922 210.116 17.4297 210.124 17.3047C210.132 17.1953 210.331 17.0782 210.722 16.9532C211.159 16.8047 211.714 16.5547 212.386 16.2032L213.007 15.9102C213.109 15.918 213.159 16.0117 213.159 16.1914V24.0782ZM217.566 26.3516V26.2696C217.034 25.8633 216.769 25.4219 216.769 24.9453C216.769 24.0313 217.226 23.2539 218.14 22.6133C217.101 21.9961 216.581 21.0313 216.581 19.7188C216.581 18.7032 216.921 17.8594 217.601 17.1875C218.288 16.5078 219.148 16.168 220.179 16.168C221.109 16.168 221.945 16.4024 222.687 16.8711C222.952 17.043 223.144 17.1289 223.261 17.1289C223.542 17.1289 223.859 17.0313 224.21 16.836C224.562 16.6328 224.773 16.4336 224.843 16.2383L224.995 15.793C225.019 15.7071 225.081 15.6602 225.183 15.6524C225.316 15.6446 225.382 15.7383 225.382 15.9336C225.382 16.0899 225.32 16.3946 225.195 16.8477C225.077 17.293 224.972 17.6055 224.878 17.7852C224.745 18.043 224.515 18.2188 224.187 18.3125C224.038 18.3594 223.964 18.4297 223.964 18.5235C223.964 18.5782 223.976 18.6524 223.999 18.7461C224.07 18.9961 224.105 19.3282 224.105 19.7422C224.105 20.6328 223.741 21.4102 223.015 22.0742C222.288 22.7383 221.441 23.0703 220.472 23.0703C220.058 23.0703 219.593 23.0235 219.077 22.9297C218.929 22.8985 218.804 22.8828 218.702 22.8828C218.46 22.8828 218.226 23.0196 217.999 23.293C217.773 23.5664 217.659 23.8516 217.659 24.1485C217.659 24.5547 217.874 24.8438 218.304 25.0157C218.734 25.1875 219.464 25.2735 220.495 25.2735C222.034 25.2735 223.12 25.4336 223.753 25.7539C224.394 26.0742 224.714 26.625 224.714 27.4063C224.714 28.3047 224.265 29.0664 223.366 29.6914C222.476 30.3164 221.382 30.6289 220.085 30.6289C218.835 30.6289 217.82 30.4141 217.038 29.9844C216.265 29.5547 215.878 28.9883 215.878 28.2852C215.878 27.3789 216.441 26.7344 217.566 26.3516ZM220.226 16.5547C219.632 16.5547 219.128 16.8203 218.714 17.3516C218.308 17.8828 218.105 18.5235 218.105 19.2735C218.105 20.25 218.323 21.0508 218.761 21.6758C219.206 22.3008 219.769 22.6133 220.448 22.6133C221.089 22.6133 221.605 22.3633 221.995 21.8633C222.394 21.3555 222.593 20.6914 222.593 19.8711C222.593 18.918 222.366 18.1289 221.913 17.5039C221.468 16.8711 220.906 16.5547 220.226 16.5547ZM218.07 26.5274C217.343 26.8555 216.98 27.3946 216.98 28.1446C216.98 28.7696 217.238 29.2578 217.753 29.6094C218.277 29.9688 218.991 30.1485 219.898 30.1485C220.96 30.1485 221.847 29.9414 222.558 29.5274C223.269 29.1211 223.624 28.6094 223.624 27.9922C223.624 27.2657 223.073 26.9024 221.972 26.9024C221.823 26.9024 221.409 26.8789 220.73 26.8321L219.488 26.75C218.902 26.711 218.429 26.6367 218.07 26.5274ZM229.531 18.0313C230.577 16.7891 231.663 16.168 232.788 16.168C234.038 16.168 235.027 16.6797 235.753 17.7032C236.253 18.4063 236.503 19.4766 236.503 20.9141V23.7149L236.491 24.0664L236.527 24.6289C236.613 25.1446 236.941 25.4453 237.511 25.5313L238.003 25.6016C238.214 25.6328 238.323 25.711 238.331 25.836C238.339 26.0078 238.21 26.0938 237.945 26.0938C237.859 26.0938 237.706 26.0821 237.488 26.0586C237.23 26.0274 236.753 26.0117 236.058 26.0117L234.898 26.0469H234.452L234.113 26.0703L233.948 26.0352C233.894 26.0039 233.866 25.9453 233.866 25.8594C233.866 25.7422 233.937 25.668 234.077 25.6367L234.429 25.543C234.741 25.4649 234.898 25.1836 234.898 24.6992L234.898 20.6563C234.898 19.5703 234.648 18.7344 234.148 18.1485C233.648 17.5547 232.937 17.2578 232.015 17.2578C231.366 17.2578 230.788 17.4492 230.281 17.8321C229.781 18.2149 229.531 18.6524 229.531 19.1446V23.6094L229.542 23.961L229.554 24.5469C229.593 25.2032 230.136 25.5625 231.183 25.625C231.441 25.6485 231.57 25.7305 231.57 25.8711C231.57 26.0117 231.48 26.0821 231.3 26.0821C231.167 26.0821 230.968 26.0625 230.702 26.0235C230.554 26.0078 230.187 26 229.601 26C228.359 26 227.616 26.0157 227.374 26.0469C227.132 26.0703 226.976 26.0821 226.906 26.0821C226.757 26.0821 226.687 26.0196 226.695 25.8946C226.702 25.8008 226.777 25.7266 226.917 25.6719C227.316 25.5313 227.581 25.3594 227.714 25.1563C227.855 24.9532 227.925 24.625 227.925 24.1719V18.875C227.925 18.3203 227.859 17.9453 227.726 17.75C227.593 17.5469 227.343 17.4453 226.976 17.4453L226.472 17.4571C226.402 17.4571 226.339 17.4414 226.284 17.4102C226.214 17.3789 226.179 17.3242 226.179 17.2461C226.179 17.1367 226.281 17.0625 226.484 17.0235C227.007 16.9297 227.511 16.7696 227.995 16.543L228.616 16.2383C228.859 16.1211 229.011 16.0469 229.073 16.0157C229.183 15.9532 229.277 15.9219 229.355 15.9219C229.495 15.9219 229.558 16.0352 229.542 16.2617C229.534 16.3867 229.531 16.5352 229.531 16.7071V18.0313ZM241.156 20.1758L241.144 20.4336C241.144 21.7696 241.511 22.8946 242.245 23.8086C242.988 24.7149 243.898 25.168 244.976 25.168C245.827 25.168 246.753 24.7852 247.753 24.0196C247.816 23.9727 247.874 23.9453 247.929 23.9375C248.038 23.9297 248.093 23.9922 248.093 24.125C248.093 24.3594 247.82 24.6914 247.273 25.1211C246.257 25.918 245.183 26.3164 244.05 26.3164C242.777 26.3164 241.706 25.8321 240.839 24.8633C239.98 23.8946 239.55 22.6953 239.55 21.2657C239.55 19.9063 239.995 18.7188 240.886 17.7032C241.777 16.6797 242.82 16.168 244.015 16.168C245.32 16.168 246.363 16.711 247.144 17.7969C247.331 18.0625 247.523 18.4219 247.718 18.875C247.913 19.3282 248.011 19.6446 248.011 19.8242C248.011 20.0821 247.757 20.211 247.249 20.211L246.382 20.1992L245.585 20.1758L241.156 20.1758ZM241.202 19.543L245.175 19.543C245.792 19.543 246.101 19.418 246.101 19.168C246.101 18.5586 245.835 17.9922 245.304 17.4688C244.781 16.9453 244.21 16.6836 243.593 16.6836C242.952 16.6836 242.417 16.9414 241.988 17.4571C241.566 17.9649 241.304 18.6602 241.202 19.543ZM252.827 18.3008C253.734 16.8789 254.57 16.168 255.335 16.168C255.577 16.168 255.894 16.3125 256.284 16.6016C256.683 16.8907 256.89 17.125 256.906 17.3047C256.913 17.4219 256.788 17.6407 256.531 17.961C256.273 18.2735 256.089 18.4336 255.98 18.4414C255.925 18.4414 255.753 18.3477 255.464 18.1602C255.128 17.9258 254.808 17.8086 254.503 17.8086C254.027 17.8086 253.628 17.9805 253.308 18.3242C252.988 18.6602 252.827 19.0821 252.827 19.5899V23.7735C252.827 24.4297 252.913 24.8985 253.085 25.1797C253.265 25.4532 253.573 25.6094 254.011 25.6485L254.62 25.6953C254.87 25.711 254.995 25.7891 254.995 25.9297C254.995 26.086 254.886 26.1641 254.667 26.1641C254.613 26.1641 254.429 26.1446 254.116 26.1055C253.968 26.0899 253.749 26.0821 253.46 26.0821L252.616 26.0703L252.101 26.0703C251.491 26.0703 251.058 26.0899 250.8 26.1289C250.597 26.1602 250.456 26.1797 250.378 26.1875C250.167 26.1953 250.062 26.1172 250.062 25.9532C250.062 25.8203 250.183 25.7305 250.425 25.6836C250.761 25.6055 250.976 25.461 251.07 25.25C251.171 25.0391 251.222 24.5899 251.222 23.9024V18.875C251.222 17.9766 250.792 17.5274 249.933 17.5274L249.534 17.5391C249.355 17.5391 249.265 17.461 249.265 17.3047C249.265 17.211 249.323 17.1407 249.441 17.0938C249.511 17.0782 249.597 17.0664 249.698 17.0586C250.433 16.9883 251.3 16.6446 252.3 16.0274C252.402 15.9727 252.491 15.9414 252.57 15.9336C252.749 15.9258 252.839 16.0586 252.839 16.3321L252.827 16.5547V18.3008Z" fill="#4E4E4E"/>
<path d="M59.3508 10.6055C59.3508 9.68491 59.1959 9.01043 58.886 8.58205C58.5761 8.15366 58.0611 7.90301 57.3411 7.83009C57.0403 7.80275 56.8899 7.70705 56.8899 7.54298C56.8899 7.36069 57.0084 7.26955 57.2454 7.26955L58.3254 7.32423C58.4348 7.33335 58.7538 7.33791 59.2825 7.33791C60.203 7.33791 60.9185 7.31512 61.429 7.26955L62.7004 7.1465C63.2473 7.10093 63.8489 7.07814 64.5051 7.07814C68.2421 7.07814 71.0448 8.01694 72.9133 9.89455C74.6178 11.6081 75.47 13.8001 75.47 16.4707C75.47 18.1934 75.0963 19.7748 74.3489 21.2149C73.6015 22.655 72.5624 23.7897 71.2317 24.6192C69.5546 25.6673 67.7226 26.1914 65.7356 26.1914C65.4986 26.1914 65.0793 26.1686 64.4778 26.1231C63.2564 26.041 62.1946 26 61.2922 26C60.317 26 59.4693 26.0501 58.7493 26.1504C58.4211 26.196 58.1614 26.2233 57.97 26.2324C57.651 26.2507 57.4915 26.1458 57.4915 25.918C57.4915 25.763 57.6191 25.6582 57.8743 25.6035C58.4941 25.4759 58.8951 25.2481 59.0774 24.9199C59.2597 24.5918 59.3508 23.9219 59.3508 22.9102L59.3508 10.6055ZM61.4426 9.49806L61.4426 23.5938C61.4426 24.1498 61.7206 24.5326 62.2766 24.7422C62.7597 24.9245 63.3749 25.084 64.1223 25.2207C64.8788 25.3574 65.5168 25.4258 66.0364 25.4258C67.595 25.4258 68.9986 25.0339 70.2473 24.25C72.3619 22.9375 73.4192 20.7044 73.4192 17.5508C73.4192 15.8373 73.0865 14.2604 72.4211 12.8203C71.7649 11.3802 70.858 10.25 69.7004 9.4297C68.2877 8.41798 66.5696 7.91212 64.5461 7.91212C63.106 7.91212 62.19 8.06707 61.7981 8.37697C61.5611 8.55926 61.4426 8.93296 61.4426 9.49806Z" fill="#19D373"/>
</g>
<defs>
<clipPath id="clip0">
<rect width="33" height="258" fill="white" transform="translate(258) rotate(90)"/>
</clipPath>
</defs>
</svg>
