<svg width="75" height="31" viewBox="0 0 75 31" fill="none" xmlns="http://www.w3.org/2000/svg">
<path fill-rule="evenodd" clip-rule="evenodd" d="M0.246269 5.76943C-0.0631868 5.96284 -0.188904 6.1079 -0.188904 6.39801L-0.188904 8.33213C-0.188904 9.16681 0.495491 9.38913 1.30466 9.65199L1.30485 9.65205C1.43312 9.69372 1.56454 9.73641 1.69686 9.78272C2.66392 10.1212 2.8251 10.6853 2.85734 10.8948C2.98627 11.0883 3.31185 12.181 3.58263 15.0048C3.9211 18.5346 7.98276 27.9151 17.1698 27.9151C26.3569 27.9151 32.7878 24.8689 34.3835 11.185C33.8032 10.2663 33.7549 9.25084 33.7549 9.00908C33.7549 8.76731 33.8516 7.31672 37.333 7.31672C40.8107 7.31672 41.0557 8.37823 41.2008 9.00707L41.2013 9.00908C41.3284 9.55989 40.8986 10.2592 40.4974 10.9119C40.4408 11.004 40.3847 11.0952 40.3309 11.185C40.6836 14.7118 41.3288 16.5103 41.9062 18.1196C41.9621 18.2754 42.0173 18.4294 42.0716 18.583C44.4809 25.4007 50.7752 27.77 56.1907 27.77C61.6062 27.77 64.765 26.3036 67.602 23.4666C70.1354 20.9332 71.4948 13.9798 72.0011 11.3899C72.0939 10.9152 72.1581 10.587 72.1955 10.4597C72.3889 9.80207 73.7267 9.41202 74.3714 9.29919C74.7969 9.29919 74.9678 8.71896 75 8.42884L75 6.83319C75 6.2046 75 5.71668 74.3714 5.43095C72.2439 4.46389 64.6041 1.99789 56.8193 1.99789C49.0344 1.99789 44.3442 4.27048 42.265 5.43095C39.5573 5.04413 38.4451 4.99578 37.333 4.99578C36.2209 4.99578 34.9637 4.99578 32.7878 5.43095C29.0647 3.59354 25.5832 2.04624 17.4599 2.04624C9.33664 2.04624 0.633095 5.52766 0.246269 5.76943ZM31.3856 8.6706C29.4144 4.05723 24.0359 3.44848 18.3786 3.44848C12.7213 3.44848 7.58625 4.31884 6.00027 7.80025C4.23807 11.6685 4.95494 15.5634 6.24204 18.8731C7.59591 22.3545 10.7389 26.6096 18.3786 26.6096C25.6298 26.6096 28.3592 22.9835 29.0649 22.0459L29.065 22.0459C29.1028 21.9956 29.1348 21.9531 29.1614 21.9193C30.2251 20.5654 33.3568 13.284 31.3856 8.6706ZM56.5413 3.44848C50.8426 3.44848 45.4247 4.0585 43.4391 8.68151C41.4535 13.3045 44.6081 20.6012 45.6797 21.9579C45.7064 21.9918 45.7387 22.0344 45.7768 22.0848C46.4877 23.0243 49.2371 26.6579 56.5413 26.6579C64.237 26.6579 67.403 22.394 68.7668 18.9053C70.0633 15.5887 70.7854 11.6857 69.0103 7.80934C67.4127 4.32065 62.24 3.44848 56.5413 3.44848Z" fill="#4E4E4E"/>
<path d="M72.1956 10.4597C71.9538 11.2817 70.5999 20.4687 67.6021 23.4666L72.1956 10.4597Z" fill="#4E4E4E"/>
<path d="M24.9226 10.4922L24.9226 20.3125C24.9226 21.1953 24.9031 21.7344 24.864 21.9297C24.825 22.1172 24.7156 22.207 24.5359 22.1992C24.4187 22.1914 24.3289 22.1563 24.2664 22.0938L24.0085 21.7891L14.1296 10.4922L14.0125 10.3633C13.9656 10.3164 13.9109 10.293 13.8484 10.293C13.7 10.293 13.6257 10.4688 13.6257 10.8203L13.6257 18.7656L13.614 19.2578L13.6492 20.0899C13.7039 20.6055 13.8367 20.9609 14.0476 21.1563C14.2585 21.3516 14.6726 21.4961 15.2898 21.5899C15.5476 21.6211 15.6765 21.7227 15.6765 21.8945C15.6765 22.0508 15.5945 22.1289 15.4304 22.1289C15.321 22.1289 15.2039 22.1211 15.0789 22.1055C14.9929 22.0899 14.6531 22.0664 14.0593 22.0352L12.864 21.9766L12.3015 22C11.9968 22 11.7078 22.0195 11.4343 22.0586C11.2312 22.0899 11.0867 22.1055 11.0007 22.1055C10.7976 22.1055 10.6882 22.0313 10.6726 21.8828C10.6648 21.7656 10.7742 21.668 11.0007 21.5899C11.657 21.3633 12.0984 21.0625 12.325 20.6875C12.5593 20.3047 12.6765 19.6914 12.6765 18.8477L12.6765 10.8789C12.6765 9.52735 12.4617 8.46485 12.032 7.69141C11.6023 6.91016 10.9812 6.46485 10.1687 6.35548C9.95776 6.32423 9.85229 6.23438 9.85229 6.08595C9.85229 5.93751 9.93823 5.86329 10.1101 5.86329C10.1492 5.86329 10.2117 5.8672 10.2976 5.87501L10.7781 5.88673L11.5632 5.91016L11.7507 5.89845C11.9382 5.89063 12.0828 5.88673 12.1843 5.88673C12.3796 5.88673 12.575 6.00001 12.7703 6.22657L23.5515 18.4375C23.7234 18.6328 23.8328 18.7266 23.8796 18.7188C23.9578 18.7109 24.0007 18.6367 24.0085 18.4961L24.0085 12.6953L24.0203 11.1133L23.8796 8.41798C23.8015 7.75391 23.6062 7.28516 23.2937 7.01173C22.989 6.73048 22.4343 6.52345 21.6296 6.39063C21.4031 6.35157 21.2898 6.25391 21.2898 6.09766C21.2898 5.94923 21.4031 5.87501 21.6296 5.87501C21.7312 5.87501 21.8953 5.88673 22.1218 5.91016C22.6609 5.97266 23.3835 6.00391 24.2898 6.00391C24.7742 6.00391 25.1609 5.98048 25.45 5.9336C25.7 5.88673 25.8914 5.86329 26.0242 5.86329C26.2273 5.86329 26.3367 5.94532 26.3523 6.10938C26.3601 6.21095 26.282 6.28516 26.1179 6.33204C25.6414 6.44923 25.325 6.64454 25.1687 6.91798C25.0203 7.19141 24.946 7.70313 24.946 8.45313L24.946 9.71876L24.9226 10.4922Z" fill="#19D373"/>
<path d="M51.1626 8.8047C51.1626 8.01563 51.0298 7.43751 50.7642 7.07032C50.4985 6.70313 50.0571 6.48829 49.4399 6.42579C49.1821 6.40235 49.0532 6.32032 49.0532 6.1797C49.0532 6.02345 49.1548 5.94532 49.3579 5.94532L50.2837 5.9922C50.3774 6.00001 50.6509 6.00391 51.104 6.00391C51.8931 6.00391 52.5063 5.98438 52.9438 5.94532L54.0337 5.83985C54.5024 5.80079 55.0181 5.78126 55.5806 5.78126C58.7837 5.78126 61.186 6.58595 62.7876 8.19532C64.2485 9.66407 64.979 11.543 64.979 13.832C64.979 15.3086 64.6587 16.6641 64.0181 17.8984C63.3774 19.1328 62.4868 20.1055 61.3462 20.8164C59.9087 21.7149 58.3384 22.1641 56.6353 22.1641C56.4321 22.1641 56.0728 22.1445 55.5571 22.1055C54.5103 22.0352 53.6001 22 52.8267 22C51.9907 22 51.2642 22.043 50.647 22.1289C50.3657 22.168 50.1431 22.1914 49.979 22.1992C49.7056 22.2149 49.5688 22.125 49.5688 21.9297C49.5688 21.7969 49.6782 21.707 49.897 21.6602C50.4282 21.5508 50.772 21.3555 50.9282 21.0742C51.0845 20.793 51.1626 20.2188 51.1626 19.3516L51.1626 8.8047ZM52.9556 7.85548L52.9556 19.9375C52.9556 20.4141 53.1938 20.7422 53.6704 20.9219C54.0845 21.0781 54.6118 21.2149 55.2524 21.332C55.9009 21.4492 56.4478 21.5078 56.8931 21.5078C58.229 21.5078 59.4321 21.1719 60.5024 20.5C62.3149 19.375 63.2212 17.4609 63.2212 14.7578C63.2212 13.2891 62.936 11.9375 62.3657 10.7031C61.8032 9.46876 61.0259 8.50001 60.0337 7.79688C58.8228 6.9297 57.3501 6.4961 55.6157 6.4961C54.3813 6.4961 53.5962 6.62891 53.2603 6.89454C53.0571 7.05079 52.9556 7.3711 52.9556 7.85548Z" fill="#19D373"/>
</svg>
