<?xml version="1.0" encoding="utf-8"?>
<!-- Generator: Adobe Illustrator 24.3.0, SVG Export Plug-In . SVG Version: 6.00 Build 0)  -->
<svg version="1.1" id="Capa_1" xmlns="http://www.w3.org/2000/svg" xmlns:xlink="http://www.w3.org/1999/xlink" x="0px" y="0px"
	 viewBox="0 0 400 400" style="enable-background:new 0 0 400 400;" xml:space="preserve">
<style type="text/css">
	.st0{fill:url(#SVGID_1_);}
	.st1{fill:#31C5F0;}
</style>
<radialGradient id="SVGID_1_" cx="-943.6754" cy="411.1581" r="0.1216" gradientTransform="matrix(2291.6716 0 0 -2218.7549 2162731.25 912360.5)" gradientUnits="userSpaceOnUse">
	<stop  offset="0" style="stop-color:#34364E;stop-opacity:0.98"/>
	<stop  offset="1" style="stop-color:#0C0824"/>
</radialGradient>
<path class="st0" d="M16.7,21.7h366.7v356.7H16.7V21.7z"/>
<path class="st1" d="M16.7,21.7h366.7v356.7H16.7V21.7z M0,395h400V5H0V395z M269.7,165c-13.2,0-17.7,6.7-17.7,12.2
	c0,6,3,10.2,20.7,19.3c26.2,12.7,34.3,24.8,34.3,42.7c0,26.7-20.3,41-47.8,41c-14.5,0-27-3-34.2-7.2c-1.2-0.5-1.3-1.3-1.3-2.7v-24.5
	c0-1.7,0.8-2.2,2-1.3c10.5,6.8,22.5,9.8,33.5,9.8c13.2,0,18.7-5.5,18.7-13c0-6-3.8-11.3-20.7-20c-23.7-11.3-33.5-22.8-33.5-42
	c0-21.5,16.8-39.3,46-39.3c14.3,0,24.3,2.2,29.8,4.7c1.3,0.8,1.7,2.2,1.7,3.3v22.8c0,1.3-0.8,2.2-2.5,1.7
	C291.3,167.8,280.5,165,269.7,165L269.7,165z M126.3,184.8c3.8,0.3,6.8,0.3,13.5,0.3c19.5,0,37.8-6.8,37.8-33.3
	c0-21.2-13.2-31.8-35.3-31.8c-6.7,0-13,0.3-16,0.5V184.8z M96.7,96.3c0-1.2,2.3-2,3.7-2c10.7-0.5,26.5-0.8,43-0.8
	c46.2,0,64.2,25.3,64.2,57.7c0,42.3-30.7,60.5-68.3,60.5c-6.3,0-8.5-0.3-13-0.3v64c0,1.3-0.5,2-2,2H98.7c-1.3,0-2-0.5-2-2L96.7,96.3
	L96.7,96.3z"/>
</svg>
