<?xml version="1.0" encoding="utf-8"?>
<!-- Generator: Adobe Illustrator 24.3.0, SVG Export Plug-In . SVG Version: 6.00 Build 0)  -->
<svg version="1.1" id="Capa_1" xmlns="http://www.w3.org/2000/svg" xmlns:xlink="http://www.w3.org/1999/xlink" x="0px" y="0px"
	 viewBox="0 0 400 400" style="enable-background:new 0 0 400 400;" xml:space="preserve">
<style type="text/css">
	.st0{fill-rule:evenodd;clip-rule:evenodd;fill:url(#SVGID_1_);}
</style>
<linearGradient id="SVGID_1_" gradientUnits="userSpaceOnUse" x1="-758.9739" y1="739.8621" x2="-758.9739" y2="739.7605" gradientTransform="matrix(1800.3628 0 0 -2465.7146 1366628.375 1824288.75)">
	<stop  offset="0" style="stop-color:#D378E5"/>
	<stop  offset="1" style="stop-color:#7526C2"/>
</linearGradient>
<path class="st0" d="M54,338.1V146C54,65.4,119.3,0,200,0s146,65.4,146,146c0,79.6-63.7,144.3-142.9,146v0
	c-22.8,0-41.3-18.5-41.3-41.3c0-22.6,18.1-40.9,40.6-41.3v-0.1c33.9-1.3,61-29.2,61-63.4c0-35.1-28.4-63.5-63.5-63.5
	S136.5,111,136.5,146v212.7c0,22.8-18.5,41.3-41.3,41.3c-8.5,0-16.8-2.6-23.7-7.5c11.9-3.5,20.5-14.4,20.5-27.4
	c0-15.8-12.8-28.6-28.6-28.6C60.2,336.5,56.9,337.1,54,338.1z M203.2,279.4c15.8,0,28.6-12.8,28.6-28.6s-12.8-28.6-28.6-28.6
	s-28.6,12.8-28.6,28.6S187.4,279.4,203.2,279.4z"/>
</svg>
