<?xml version="1.0" encoding="utf-8"?>
<!-- Generator: Adobe Illustrator 24.3.0, SVG Export Plug-In . SVG Version: 6.00 Build 0)  -->
<svg version="1.1" id="Layer_1" xmlns="http://www.w3.org/2000/svg" xmlns:xlink="http://www.w3.org/1999/xlink" x="0px" y="0px"
	 viewBox="0 0 123.3 138.5" style="enable-background:new 0 0 123.3 138.5;" xml:space="preserve">
<style type="text/css">
	.st0{fill:#1C1C1C;}
</style>
<g id="NewGroupe0">
	<g id="NewGroup0-0">
		<g>
			<path class="st0" d="M49.7,54.4c-0.6-0.9-0.9-1.9-0.9-3.1c0-0.8,0.2-1.5,0.4-2.1c0.4-1,1.1-1.8,2-2.4c0.9-0.6,1.9-0.9,3.1-0.9
				c0.8,0,1.5,0.2,2.1,0.4c1,0.4,1.8,1.1,2.4,2c0.6,0.9,0.9,1.9,0.9,3.1c0,0.8-0.2,1.5-0.4,2.1c-0.4,1-1.1,1.8-2,2.4
				c-0.9,0.6-1.9,0.9-3.1,0.9c-0.8,0-1.5-0.2-2.1-0.4C51.2,56,50.3,55.3,49.7,54.4L49.7,54.4z M58.2,60.4c1.8-0.8,3.3-2,4.3-3.6
				c1.1-1.6,1.7-3.5,1.7-5.5c0-1.4-0.3-2.7-0.8-3.9c-0.8-1.8-2-3.3-3.6-4.3c-1.6-1.1-3.5-1.7-5.5-1.7c-1.4,0-2.7,0.3-3.8,0.8
				c-1.8,0.8-3.3,2-4.3,3.6c-1.1,1.6-1.7,3.5-1.7,5.5c0,1.4,0.3,2.7,0.8,3.8c0.8,1.8,2,3.3,3.6,4.4c1.6,1.1,3.5,1.7,5.5,1.7
				C55.7,61.2,57,60.9,58.2,60.4L58.2,60.4z"/>
			<rect x="42.8" y="71.1" class="st0" width="0" height="0"/>
			<rect x="34.3" y="65.2" class="st0" width="0" height="0"/>
			<path class="st0" d="M42.8,31.5C42.8,31.5,42.8,31.5,42.8,31.5L42.8,31.5L42.8,31.5L42.8,31.5z"/>
			<rect x="65.8" y="71.1" class="st0" width="0" height="0"/>
			<rect x="37.1" y="70.2" class="st0" width="0" height="0"/>
			<path class="st0" d="M104.6,49.6c0-0.1,0.1-0.3,0.1-0.4c0,0,0,0,0,0c0-0.1,0.1-0.2,0.1-0.3c0,0,0-0.1,0.1-0.1
				c0-0.1,0.1-0.2,0.1-0.3c0,0,0-0.1,0.1-0.1c0.1-0.1,0.1-0.2,0.2-0.3c0,0,0-0.1,0.1-0.1c0.1-0.1,0.2-0.2,0.2-0.3c0,0,0,0,0,0
				c0.1-0.1,0.2-0.2,0.3-0.3c0,0,0,0,0.1,0c0.1-0.1,0.2-0.2,0.3-0.2c0,0,0.1-0.1,0.1-0.1c0.1-0.1,0.2-0.1,0.2-0.2
				c0,0,0.1-0.1,0.1-0.1c0.1-0.1,0.1-0.1,0.2-0.2c0,0,0.1-0.1,0.1-0.1c0.1,0,0.2-0.1,0.2-0.1c0.1,0,0.1-0.1,0.2-0.1
				c0.1,0,0.2-0.1,0.2-0.1c0.1,0,0.1,0,0.2-0.1c0.1,0,0.2-0.1,0.2-0.1c0.1,0,0.1,0,0.2-0.1c0.1,0,0.2-0.1,0.3-0.1c0,0,0.1,0,0.2,0
				c0.1,0,0.2,0,0.3-0.1c0.1,0,0.1,0,0.2,0c0.1,0,0.2,0,0.3,0c0.1,0,0.1,0,0.2,0c0.2,0,0.3,0,0.5,0c0.8,0,1.5,0.2,2.1,0.4
				c1,0.4,1.8,1.1,2.4,2c0.6,0.9,0.9,1.9,0.9,3.1c0,0.8-0.2,1.5-0.4,2.1c-0.4,1-1.1,1.8-2,2.4c-0.8,0.5-1.7,0.9-2.7,0.9
				c-0.1,0-0.3,0-0.4,0s-0.3,0-0.4,0c0,0-0.1,0-0.1,0c-0.1,0-0.3,0-0.4-0.1c0,0,0,0-0.1,0c-0.1,0-0.2,0-0.4-0.1c0,0,0,0,0,0
				c-0.1,0-0.3-0.1-0.4-0.1c0,0,0,0-0.1,0c-0.3-0.1-0.5-0.2-0.8-0.3c0,0,0,0-0.1,0c-0.1-0.1-0.2-0.1-0.3-0.2c0,0-0.1,0-0.1-0.1
				c-0.1-0.1-0.2-0.1-0.2-0.2c0,0-0.1-0.1-0.1-0.1c-0.1,0-0.1-0.1-0.2-0.2c0,0-0.1-0.1-0.1-0.1c-0.1-0.1-0.1-0.1-0.2-0.2
				c0,0-0.1-0.1-0.1-0.1c-0.1-0.1-0.1-0.1-0.2-0.2c0,0-0.1-0.1-0.1-0.1c0-0.1-0.1-0.1-0.1-0.2c0-0.1-0.1-0.1-0.1-0.2
				c0-0.1-0.1-0.1-0.1-0.2c0-0.1-0.1-0.1-0.1-0.2c0-0.1-0.1-0.1-0.1-0.1c0-0.1-0.1-0.1-0.1-0.2c0,0,0-0.1-0.1-0.1
				c0-0.1-0.1-0.2-0.1-0.3c0,0,0-0.1,0-0.1c-0.2-0.6-0.4-1.3-0.4-2C104.4,50.7,104.5,50.1,104.6,49.6L104.6,49.6z M101,96.5
				c0,0.8-0.2,1.5-0.4,2.1c-0.4,1-1.1,1.8-2,2.4c-0.9,0.6-1.9,0.9-3.1,0.9c-0.8,0-1.5-0.2-2.1-0.4c-1-0.4-1.8-1.1-2.4-2
				c-0.6-0.9-0.9-1.9-0.9-3.1c0-0.8,0.2-1.5,0.4-2.2c0.4-1,1.1-1.8,2-2.4c0.9-0.6,1.9-0.9,3.1-0.9c0.8,0,1.5,0.2,2.1,0.4
				c1,0.4,1.8,1.1,2.4,2C100.7,94.3,101,95.3,101,96.5L101,96.5z M73.7,107H34.9c0-0.5,0.1-0.9,0.3-1.3c0.3-0.8,0.8-1.6,1.4-2.2
				c0.6-0.5,1.2-1,2-1.2H70c1,0.4,1.9,1,2.6,1.9c0.4,0.5,0.6,1,0.8,1.6C73.6,106.1,73.6,106.5,73.7,107L73.7,107z M73.3,117.6
				c-0.4,1-1.1,1.9-2,2.5c-0.9,0.6-2,1-3.1,1h-5.3h-17h-5.3c-0.8,0-1.5-0.2-2.2-0.4c-1-0.4-1.9-1.1-2.5-2c-0.6-0.9-1-2-1-3.1v-4.1
				l38.8,0v4.1C73.7,116.2,73.5,117,73.3,117.6L73.3,117.6z M60.1,128.5c-0.5,1.1-1.3,2.1-2.3,2.8c-1,0.7-2.2,1.1-3.5,1.1
				c-0.9,0-1.7-0.2-2.5-0.5c-1.1-0.5-2.1-1.3-2.8-2.3c-0.7-1-1.1-2.2-1.1-3.5v-0.6h12.6v0.6C60.6,127,60.4,127.8,60.1,128.5
				L60.1,128.5z M52,70.8c0-0.2,0-0.3,0-0.5c0-0.7-0.2-1.4-0.6-1.9c-0.2-0.3-0.4-0.5-0.7-0.7c-0.3-0.2-0.6-0.4-1-0.5v0
				c-1.2-0.3-2.3-0.8-3.4-1.4l0,0c-0.5-0.3-1-0.4-1.6-0.4c-0.5,0-1.1,0.1-1.5,0.4c-0.4,0.2-0.8,0.5-1.1,1L40.1,67l-1.5-1.5l0.2-2
				c0.4-0.3,0.7-0.7,1-1.1c0.3-0.5,0.4-1,0.4-1.5c0-0.5-0.1-1.1-0.4-1.6l0,0c-0.6-1.1-1.1-2.2-1.4-3.4v0c-0.1-0.3-0.3-0.7-0.5-1
				c-0.6-0.9-1.6-1.4-2.6-1.4c-0.2,0-0.3,0-0.5,0l-1.6-1.3v-2.1l1.6-1.3c0.2,0,0.3,0,0.5,0c0.7,0,1.4-0.2,1.9-0.6
				c0.3-0.2,0.5-0.4,0.7-0.7c0.2-0.3,0.4-0.6,0.5-1v0c0.3-1.2,0.8-2.3,1.4-3.4l0,0c0.3-0.5,0.4-1,0.4-1.5c0-0.5-0.1-1.1-0.4-1.5
				c-0.2-0.4-0.6-0.8-1-1.1l-0.2-2.1l1.5-1.5l2.1,0.2c0.3,0.4,0.7,0.7,1.1,1c0.5,0.3,1,0.4,1.5,0.4c0.5,0,1.1-0.1,1.6-0.4
				c1.1-0.6,2.2-1.1,3.4-1.4l0,0c0.4-0.1,0.7-0.3,1-0.5c0.4-0.3,0.8-0.7,1-1.2c0.2-0.4,0.4-1,0.4-1.5c0-0.2,0-0.3,0-0.5l1.3-1.6h2.1
				l1.3,1.6c0,0.2,0,0.3,0,0.5c0,0.7,0.2,1.4,0.6,1.9c0.2,0.3,0.5,0.5,0.7,0.7c0.3,0.2,0.6,0.4,1,0.5h0c1.2,0.3,2.3,0.8,3.4,1.4h0
				c0.5,0.3,1,0.4,1.5,0.4c0.5,0,1.1-0.1,1.5-0.4c0.4-0.2,0.8-0.5,1.1-1l2.1-0.2l1.5,1.5l-0.2,2c-0.4,0.3-0.7,0.7-0.9,1.1
				c-0.3,0.5-0.4,1-0.4,1.5c0,0.5,0.1,1.1,0.4,1.6v0c0.6,1.1,1.1,2.2,1.4,3.4v0c0.1,0.3,0.3,0.7,0.5,1c0.6,0.9,1.6,1.4,2.6,1.4
				c0.2,0,0.3,0,0.5,0l1.6,1.3v2.1l-1.6,1.3c-0.2,0-0.3,0-0.5,0c-0.7,0-1.4,0.2-1.9,0.6c-0.3,0.2-0.5,0.4-0.7,0.7
				c-0.2,0.3-0.4,0.6-0.5,1l0,0c-0.3,1.2-0.8,2.3-1.4,3.4l0,0c-0.3,0.5-0.4,1-0.4,1.6c0,0.5,0.1,1.1,0.4,1.5
				c0.2,0.4,0.6,0.8,0.9,1.1l0.2,2L68.5,67l-2.1-0.2c-0.3-0.4-0.7-0.7-1.1-1c-0.5-0.3-1-0.4-1.5-0.4c-0.5,0-1.1,0.1-1.6,0.4l0,0
				c-1.1,0.6-2.2,1.1-3.4,1.4l0,0c-0.4,0.1-0.7,0.3-1,0.5c-0.4,0.3-0.8,0.7-1,1.1c-0.2,0.5-0.4,1-0.4,1.5c0,0.2,0,0.3,0,0.5l-1,1.3
				H53L52,70.8L52,70.8z M51.9,70.7L51.9,70.7L51.9,70.7L51.9,70.7L51.9,70.7z M42,66.9C42,66.9,42,66.9,42,66.9L42,66.9L42,66.9
				L42,66.9z M34.6,53.7C34.6,53.7,34.6,53.7,34.6,53.7L34.6,53.7L34.6,53.7L34.6,53.7z M35,53.7L35,53.7L35,53.7L35,53.7L35,53.7z
				 M34.2,57.1C34.2,57.1,34.2,57.1,34.2,57.1L34.2,57.1L34.2,57.1L34.2,57.1z M34.2,45.5L34.2,45.5C34.2,45.5,34.2,45.5,34.2,45.5
				L34.2,45.5L34.2,45.5z M34.6,49L34.6,49C34.6,49,34.6,49,34.6,49L34.6,49L34.6,49z M47.7,32.6L47.7,32.6L47.7,32.6
				C47.7,32.6,47.7,32.6,47.7,32.6L47.7,32.6z M51.9,32L51.9,32L51.9,32L51.9,32L51.9,32z M56.7,31.6L56.7,31.6L56.7,31.6L56.7,31.6
				L56.7,31.6z M60.1,31.2L60.1,31.2C60.1,31.2,60.1,31.2,60.1,31.2L60.1,31.2L60.1,31.2z M64.4,33C64.4,33,64.4,33,64.4,33L64.4,33
				L64.4,33L64.4,33z M72.6,41.2L72.6,41.2L72.6,41.2L72.6,41.2L72.6,41.2z M74.4,45.5L74.4,45.5L74.4,45.5L74.4,45.5L74.4,45.5z
				 M74.4,57.1L74.4,57.1L74.4,57.1L74.4,57.1L74.4,57.1z M74,53.7L74,53.7C74,53.7,74,53.7,74,53.7L74,53.7L74,53.7z M68.7,67
				L68.7,67L68.7,67L68.7,67L68.7,67z M66.6,66.9L66.6,66.9L66.6,66.9C66.6,66.9,66.6,66.9,66.6,66.9L66.6,66.9z M56.7,71
				C56.7,71,56.7,71,56.7,71L56.7,71L56.7,71L56.7,71z M93.3,17.3c-1-0.4-1.8-1.1-2.4-2c-0.6-0.9-0.9-1.9-0.9-3.1
				c0-0.8,0.2-1.5,0.4-2.1c0.4-1,1.1-1.8,2-2.4c0.9-0.6,1.9-0.9,3.1-0.9c0.8,0,1.5,0.2,2.1,0.4c1,0.4,1.8,1.1,2.4,2
				c0.6,0.9,0.9,1.9,0.9,3.1c0,0.8-0.2,1.5-0.4,2.2c-0.4,1-1.1,1.8-2,2.4c-0.4,0.3-0.9,0.5-1.4,0.7c0,0,0,0,0,0
				c-0.5,0.2-1.1,0.2-1.6,0.2C94.7,17.7,94,17.6,93.3,17.3L93.3,17.3z M88.8,55.8h12.3c0.1,0.3,0.3,0.6,0.5,0.8c0,0,0,0,0,0.1
				c0,0.1,0.1,0.1,0.1,0.2c0,0,0.1,0.1,0.1,0.1c0,0.1,0.1,0.1,0.1,0.2c0,0,0.1,0.1,0.1,0.1c0,0,0.1,0.1,0.1,0.1
				c0,0.1,0.1,0.1,0.1,0.1c0,0,0.1,0.1,0.1,0.1c0,0.1,0.1,0.1,0.1,0.1c0,0,0.1,0.1,0.1,0.1c0,0.1,0.1,0.1,0.1,0.1
				c0,0,0.1,0.1,0.1,0.1c0.1,0.1,0.1,0.1,0.2,0.2c0,0,0.1,0.1,0.1,0.1c0.1,0.1,0.1,0.1,0.2,0.1c0,0,0.1,0.1,0.1,0.1
				c0.1,0.1,0.1,0.1,0.2,0.1c0,0,0.1,0.1,0.1,0.1c0.1,0.1,0.1,0.1,0.2,0.2c0,0,0.1,0,0.1,0.1h0c0,0,0,0,0,0c0.1,0.1,0.2,0.1,0.3,0.2
				c0,0,0,0,0,0c0,0,0,0,0,0c0.4,0.3,0.9,0.5,1.3,0.7c0,0,0,0,0,0c0.1,0,0.2,0.1,0.3,0.1c0,0,0,0,0.1,0c0.1,0,0.2,0.1,0.3,0.1
				c0,0,0.1,0,0.1,0c0.1,0,0.2,0.1,0.2,0.1c0,0,0,0,0,0c0,0,0.1,0,0.1,0c0.1,0,0.2,0.1,0.2,0.1c0,0,0.1,0,0.1,0c0.1,0,0.1,0,0.2,0.1
				c0,0,0.1,0,0.1,0c0.1,0,0.2,0,0.2,0.1c0,0,0.1,0,0.1,0c0.1,0,0.2,0,0.2,0c0,0,0.1,0,0.1,0c0.1,0,0.2,0,0.2,0c0,0,0.1,0,0.1,0
				c0.1,0,0.2,0,0.3,0c0,0,0.1,0,0.1,0c0.1,0,0.2,0,0.3,0c0,0,0.1,0,0.1,0c0.1,0,0.3,0,0.4,0c1.4,0,2.7-0.3,3.9-0.8
				c1.8-0.8,3.3-2,4.4-3.6c1.1-1.6,1.7-3.5,1.7-5.6c0-1.4-0.3-2.7-0.8-3.9c-0.8-1.8-2-3.3-3.6-4.4c-1.6-1.1-3.5-1.7-5.5-1.7
				c-0.2,0-0.3,0-0.5,0c0,0-0.1,0-0.1,0c-0.1,0-0.2,0-0.3,0c-0.1,0-0.1,0-0.2,0c-0.1,0-0.2,0-0.3,0c0,0-0.1,0-0.2,0
				c-0.1,0-0.2,0-0.3,0.1c0,0-0.1,0-0.1,0c-0.2,0-0.3,0.1-0.4,0.1c0,0-0.1,0-0.1,0c-0.1,0-0.2,0.1-0.3,0.1c0,0-0.1,0-0.2,0.1
				c-0.1,0-0.1,0-0.2,0c0,0-0.1,0-0.1,0c-0.1,0.1-0.3,0.1-0.4,0.1c0,0-0.1,0-0.1,0c0,0,0,0-0.1,0c-0.1,0.1-0.3,0.1-0.4,0.2
				c0,0,0,0-0.1,0c-0.3,0.2-0.7,0.3-1,0.5c0,0,0,0-0.1,0c-0.2,0.1-0.3,0.2-0.4,0.3c0,0,0,0,0,0c-0.1,0.1-0.3,0.2-0.4,0.3
				c0,0,0,0,0,0c-0.1,0.1-0.3,0.2-0.4,0.3c0,0,0,0-0.1,0.1c-0.1,0.1-0.3,0.2-0.4,0.4c0,0,0,0-0.1,0.1c-0.1,0.1-0.2,0.2-0.3,0.4
				c0,0,0,0,0,0c-0.1,0.1-0.2,0.3-0.3,0.4c0,0,0,0.1-0.1,0.1c-0.1,0.1-0.2,0.3-0.3,0.4c0,0,0,0,0,0c0,0,0,0,0,0
				c-0.1,0.2-0.2,0.3-0.3,0.5c0,0,0,0,0,0c-0.1,0.2-0.2,0.3-0.3,0.5c0,0,0,0,0,0c-0.2,0.3-0.3,0.7-0.5,1c0,0,0,0,0,0
				c-0.1,0.2-0.1,0.3-0.2,0.5c0,0,0,0,0,0c0,0,0,0,0,0c-0.3,0.9-0.4,1.8-0.4,2.8c0,0.1,0,0.1,0,0.2H89.1v-0.2l0,0c0-0.1,0-0.2,0-0.3
				c0-4.7-0.9-9.3-2.7-13.6l8.4-5.2c1.6-1,2.9-2.4,3.8-4c0.9-1.6,1.4-3.4,1.4-5.3V21c1.5-0.8,2.8-1.9,3.7-3.3
				c1.1-1.6,1.7-3.5,1.7-5.6c0-1.4-0.3-2.7-0.8-3.9c-0.8-1.8-2-3.3-3.6-4.4c-1.6-1.1-3.5-1.7-5.5-1.7c-1.4,0-2.7,0.3-3.9,0.8
				c-1.8,0.8-3.3,2-4.4,3.6c-1.1,1.6-1.7,3.5-1.7,5.5c0,1.4,0.3,2.7,0.8,3.9c0.8,1.8,2,3.3,3.6,4.4c1.6,1.1,3.5,1.7,5.6,1.7
				c0,0,0.1,0,0.1,0v0.7c0,1.1-0.3,2.2-0.8,3.2c-0.5,0.9-1.3,1.8-2.3,2.4l-8.2,5.1l-1.2-2L83,31.3c-1.6-2.4-3.6-4.5-5.7-6.4
				C76.4,24,75,24.1,74.2,25c-0.8,0.9-0.7,2.3,0.2,3.1l0,0c1.9,1.6,3.5,3.5,5,5.6l2.2,3.8c0.1,0.2,0.2,0.3,0.2,0.5
				c1.9,4,2.8,8.5,2.8,13c0,0.1,0,0.2,0,0.3l0,0l0,2.3c-0.2,2.1-0.5,4.1-1.1,6c-0.5,1.9-1.3,3.7-2.2,5.5c-1.6,2.3-3.1,4.9-4.6,7.6
				c-2.2,4.2-4.2,8.9-5.7,13.6c-1.3,4-2.2,7.9-2.7,11.6H56.5V76.5h0.1c0.5,0,0.9-0.1,1.3-0.4c0.3-0.2,0.5-0.5,0.7-0.7l0,0l1.5-1.9v0
				c0.5-0.7,0.8-1.5,0.9-2.3c0.9-0.3,1.7-0.6,2.5-1c0.2,0.2,0.4,0.3,0.6,0.4v0c0.5,0.3,1.1,0.5,1.7,0.6l2.4,0.3h0c0.2,0,0.3,0,0.4,0
				c1,0,2.1-0.4,2.8-1.2l0,0l1.7-1.7l0,0c0.8-0.8,1.2-1.8,1.2-2.8c0-0.1,0-0.3,0-0.4v0l-0.3-2.4v0c-0.1-0.8-0.4-1.6-1-2.2
				c0.4-0.8,0.8-1.7,1-2.5c0.8,0,1.6-0.3,2.3-0.9l0,0l1.9-1.5l0,0c0.5-0.4,0.8-0.8,1.1-1.4c0.3-0.5,0.4-1.1,0.4-1.7v-2.5
				c0-0.6-0.1-1.2-0.4-1.7c-0.3-0.5-0.6-1-1.1-1.4l0,0l-1.9-1.5c-0.7-0.5-1.5-0.8-2.3-0.9c-0.3-0.9-0.6-1.7-1-2.5
				c0.5-0.6,0.9-1.4,1-2.2v0l0.3-2.4v0c0-0.1,0-0.3,0-0.4c0-1.1-0.4-2.1-1.2-2.8l0,0l-1.7-1.7h0c-0.8-0.7-1.8-1.2-2.8-1.2
				c-0.1,0-0.3,0-0.5,0h0l-2.4,0.3l0,0c-0.6,0.1-1.2,0.3-1.7,0.6c-0.2,0.1-0.4,0.3-0.5,0.4c-0.8-0.4-1.7-0.8-2.5-1
				c0-0.8-0.3-1.6-0.9-2.3l-1.5-1.9l0,0c-0.8-0.9-1.9-1.5-3.1-1.5h-2.5c-1.2,0-2.4,0.5-3.1,1.5l0,0l-1.5,1.9l0,0
				c-0.5,0.7-0.8,1.4-0.9,2.3c-0.9,0.3-1.7,0.6-2.5,1c-0.6-0.5-1.4-0.9-2.2-1l-2.4-0.3c-0.1,0-0.3,0-0.4,0c-1,0-2.1,0.4-2.8,1.2l0,0
				l-1.7,1.7l0,0c-0.7,0.7-1.2,1.8-1.2,2.8c0,0.1,0,0.3,0,0.5v0l0.3,2.4l0,0c0.1,0.8,0.4,1.6,1,2.2c-0.4,0.8-0.8,1.7-1,2.5
				c-0.8,0-1.6,0.3-2.3,0.9l0,0L30.3,47l0,0c-0.9,0.8-1.5,1.9-1.5,3.1v2.5c0,1.2,0.5,2.4,1.5,3.1l0,0l1.9,1.5h0
				c0.7,0.5,1.4,0.8,2.3,0.9c0.3,0.9,0.7,1.7,1,2.5c-0.6,0.6-0.9,1.4-1,2.2l0,0l-0.3,2.4c0,0.1,0,0.3,0,0.4c0,1.1,0.4,2.1,1.2,2.8
				l0,0l1.7,1.7c0.8,0.8,1.8,1.2,2.8,1.2c0.1,0,0.3,0,0.4,0l0,0l2.4-0.3c0.8-0.1,1.6-0.4,2.2-1c0.8,0.4,1.7,0.8,2.5,1
				c0,0.8,0.3,1.6,0.9,2.3l0,0l1.5,1.9l0,0c0.2,0.3,0.5,0.5,0.8,0.7c0.4,0.3,0.8,0.4,1.3,0.4h0.1v21.3H40.2
				c-1.1-10.6-5-20.7-11-29.5l0,0c-3.4-4.9-5.3-10.8-5.4-17.2v0c0,0,0,0,0-0.1c0-4.2,0.9-8.2,2.4-11.8c2.3-5.5,6.2-10.1,11-13.4
				c4.9-3.3,10.7-5.2,17-5.2h0c0,0,0,0,0,0c2.8,0,5.5,0.4,8.1,1.1c1.2,0.3,2.4-0.4,2.7-1.5c0.3-1.2-0.4-2.4-1.5-2.7
				c-2.9-0.8-6.1-1.2-9.2-1.2c0,0-0.1,0-0.1,0h0c-4.8,0-9.4,1-13.5,2.8c-6.2,2.7-11.6,7.1-15.3,12.7c-3.8,5.6-6,12.3-6,19.4
				c0,0,0,0.1,0,0.1v0c0,7.3,2.3,14.1,6.1,19.7l0,0c5.7,8.3,9.3,17.9,10.3,27.8c-1.3,0.7-2.5,1.7-3.4,2.9c-0.6,0.8-1.1,1.8-1.5,2.8
				c-0.3,0.9-0.5,1.8-0.5,2.8h-1.6c-1.2,0-2.2,1-2.2,2.2c0,1.2,1,2.2,2.2,2.2l0,0h1.6v4.1c0,1.4,0.3,2.7,0.8,3.9
				c0.8,1.8,2,3.3,3.6,4.4c1.6,1.1,3.5,1.7,5.6,1.7h3.1v0.6c0,1.5,0.3,2.9,0.8,4.2c0.8,1.9,2.2,3.6,3.9,4.7c1.7,1.2,3.8,1.8,6,1.8
				c1.5,0,2.9-0.3,4.2-0.8c1.9-0.8,3.6-2.2,4.7-3.9c1.2-1.7,1.8-3.8,1.8-6v-0.6h3.1c1.4,0,2.7-0.3,3.9-0.8c1.8-0.8,3.3-2,4.4-3.6
				c1.1-1.6,1.7-3.5,1.7-5.6v-4.1h1.6c1.2,0,2.2-1,2.2-2.2c0-1.2-1-2.2-2.2-2.2l0,0h-1.6c0-1-0.2-1.9-0.5-2.8
				c-0.5-1.5-1.4-2.9-2.5-4c-0.7-0.7-1.5-1.2-2.3-1.7c0.2-2.1,0.7-4.3,1.3-6.7c1.1-4.3,2.8-8.9,4.7-13.2c1.6-3.5,3.4-6.9,5.3-9.7
				l8.5,5.3v0c1,0.6,1.7,1.4,2.3,2.4c0.5,0.9,0.8,2,0.8,3.2v6.7c0,0-0.1,0-0.1,0c-1.4,0-2.7,0.3-3.9,0.8c-1.8,0.8-3.3,2-4.4,3.6
				c-1.1,1.6-1.7,3.5-1.7,5.6c0,1.4,0.3,2.7,0.8,3.9c0.8,1.8,2,3.3,3.6,4.4c1.6,1.1,3.5,1.7,5.6,1.7c1.4,0,2.7-0.3,3.9-0.8
				c1.8-0.8,3.3-2,4.4-3.6c1.1-1.6,1.7-3.5,1.7-5.5c0-1.4-0.3-2.7-0.8-3.9c-0.8-1.8-2-3.3-3.6-4.4c-0.3-0.2-0.7-0.4-1.1-0.6v-7.8
				c0-1.9-0.5-3.7-1.4-5.3c-0.9-1.6-2.2-3-3.8-4l0,0l-8.7-5.4c0.7-1.5,1.2-3,1.7-4.5C88.2,59.1,88.6,57.5,88.8,55.8L88.8,55.8z"/>
			<path class="st0" d="M56.5,12.8V8c0-1.2-1-2.2-2.2-2.2c-1.2,0-2.2,1-2.2,2.2v4.8c0,1.2,1,2.2,2.2,2.2C55.5,15,56.5,14,56.5,12.8
				L56.5,12.8z"/>
			<path class="st0" d="M25.2,17.4c-0.9-0.9-2.3-0.9-3.1,0c-0.9,0.9-0.9,2.2,0,3.1l3.4,3.4c0.9,0.9,2.3,0.9,3.1,0
				c0.9-0.9,0.9-2.2,0-3.1L25.2,17.4L25.2,17.4z"/>
			<path class="st0" d="M4.5,46.6c-1.2,0-2.2,1-2.2,2.2c0,1.2,1,2.2,2.2,2.2h9.7c1.2,0,2.2-1,2.2-2.2c0-1.2-1-2.2-2.2-2.2H4.5
				L4.5,46.6z"/>
			<path class="st0" d="M22.3,74.9l-3.4,3.4c-0.9,0.9-0.9,2.2,0,3.1c0.9,0.9,2.2,0.9,3.1,0l3.4-3.4c0.9-0.9,0.9-2.2,0-3.1
				C24.5,74.1,23.1,74.1,22.3,74.9L22.3,74.9z"/>
		</g>
	</g>
</g>
</svg>
