<?xml version="1.0" encoding="utf-8"?>
<!-- Generator: Adobe Illustrator 24.3.0, SVG Export Plug-In . SVG Version: 6.00 Build 0)  -->
<svg version="1.1" id="Capa_1" xmlns="http://www.w3.org/2000/svg" xmlns:xlink="http://www.w3.org/1999/xlink" x="0px" y="0px"
	 viewBox="0 0 400 400" style="enable-background:new 0 0 400 400;" xml:space="preserve">
<style type="text/css">
	.st0{fill-rule:evenodd;clip-rule:evenodd;fill:#EA6C00;}
	.st1{fill-rule:evenodd;clip-rule:evenodd;fill:#FDAD00;}
	.st2{fill-rule:evenodd;clip-rule:evenodd;fill:#FDD231;}
	.st3{fill-rule:evenodd;clip-rule:evenodd;fill:#FEEEB7;}
</style>
<desc>Created using Figma</desc>
<g>
	<g transform="translate(.17 30.901)">
		<path id="a" class="st0" d="M80.8,117.2l119,232.9l-200-232.9H80.8z"/>
	</g>
	<g transform="matrix(-1 0 0 1 94.64 30.901)">
		<path id="b" class="st0" d="M-224.4,117.2l119,232.9l-200-232.9L-224.4,117.2L-224.4,117.2z"/>
	</g>
	<g transform="translate(19.3 30.901)">
		<path id="c" class="st1" d="M61.6,117.2h238L180.6,350.1L61.6,117.2z"/>
	</g>
	<g transform="translate(19.3 .42)">
		<path id="d" class="st2" d="M180.6,18.6L67.9,30.5l-6.3,117.1L180.6,18.6z"/>
	</g>
	<g transform="matrix(-1 0 0 1 75.5 .42)">
		<path id="e" class="st2" d="M-124.3,18.6l-112.7,11.9l-6.3,117.1L-124.3,18.6z"/>
	</g>
	<g transform="matrix(-1 0 0 1 94.64 3.234)">
		<path id="f" class="st1" d="M-305.2,144.9l87.3-117.1l-6.3,117.1H-305.2z"/>
	</g>
	<g transform="translate(.17 3.234)">
		<path id="g" class="st1" d="M-0.2,144.9L87.1,27.7l-6.3,117.1H-0.2z"/>
	</g>
	<g transform="translate(19.3 .42)">
		<path id="h" class="st3" d="M180.6,18.6l-119,129.1h238L180.6,18.6z"/>
	</g>
</g>
</svg>
