<?xml version="1.0" encoding="utf-8"?>
<!-- Generator: Adobe Illustrator 24.3.0, SVG Export Plug-In . SVG Version: 6.00 Build 0)  -->
<svg version="1.1" xmlns="http://www.w3.org/2000/svg" xmlns:xlink="http://www.w3.org/1999/xlink" x="0px" y="0px"
	 viewBox="0 0 91 149.8" style="enable-background:new 0 0 91 149.8;" xml:space="preserve">
<style type="text/css">
	.st0{fill:#333333;}
	.st1{fill:none;stroke:#414042;stroke-width:4.5678;stroke-linecap:round;stroke-linejoin:round;stroke-miterlimit:10;}
</style>
<g id="Capa_1">
	<g>
		<path class="st0" d="M39,41.5c-0.2,0-0.6,0.2-1.1,0.3c-0.4,0.1-1.2,0.5-1.7,1c-0.8,0.7-1.2,0.8-2.7,0.8c-2,0-3.7,0.8-4.8,2.1
			c-0.5,0.6-1,0.9-1.6,0.9c-1.2,0-2.9,1.5-4,3.8c-0.5,1-1.5,2.4-2.2,3.2c-1.5,1.7-2.4,3.9-2.8,7.2c-0.2,1.8-0.5,3.1-1.1,4.2
			c-1.3,2.5-1.4,3.8-1.3,9.9c0.1,4.9,0.2,5.7,0.7,6.8c0.4,0.9,0.6,2,0.7,3.7c0.1,2.3,0.2,2.6,1,3.8c0.5,0.7,0.9,1.6,0.9,2
			c0,1.6,1.4,4,2.6,4.3c0.3,0.1,0.7,0.7,1,1.5c1,2.5,2.7,3.9,5,3.9c0.7,0,1.3,0.2,1.5,0.4c0.5,0.7,1.9,1.3,2.7,1.3
			c0.6,0,0.9,0.2,1.4,1.5c0.4,0.8,1.1,1.9,1.6,2.3c1.1,1,3.5,1.5,4.9,1.1c1.3-0.3,3.4-2.3,4.2-3.7c0.8-1.4,0.9-6,0.3-8.1
			c-0.4-1.5-0.4-1.8,0-4c0.4-2,0.4-2.8,0.2-5.4c-0.3-2.6-0.3-3.2,0.1-4.3c0.7-1.9,0.4-6.3-0.4-8.1l-0.6-1.4l0.6-1.2
			c0.8-1.5,1-4.6,0.5-6c-0.3-0.8-0.4-1.1,0-1.9c0.5-1.2,0.5-4.3-0.1-6.1c-0.4-1.4-0.4-1.7,0-3.3c0.5-2.1,0.6-6.7,0.1-8.4
			c-0.4-1.5-1.6-3-2.7-3.4C40.9,41.7,39.4,41.4,39,41.5L39,41.5z M41.8,44.8l0.9,0.8l0.1,3.4c0.1,2.4,0,3.7-0.3,4.5
			c-0.4,1.1-0.4,1.1-2.2,1.3c-2,0.2-2.7,0.7-3,2.4c-0.4,2.1,1.5,4.1,2.7,3c0.5-0.5,0.3-1.1-0.5-1.1c-0.5,0-0.6-0.2-0.5-1.1
			c0.1-0.9,0.2-1.1,0.9-1.3c1.1-0.3,2.3,0.1,2.7,0.9c0.4,0.8,0.5,3.7,0.1,4.7c-0.2,0.6-0.4,0.7-0.8,0.5c-0.3-0.1-1.6-0.3-2.8-0.4
			c-1.8-0.1-2.5-0.3-3.2-0.8c-0.9-0.6-0.9-0.7-0.9-2.5c0-3.1,1.4-5,4-5.5c1.1-0.2,1.4-0.6,0.9-1.1c-0.7-0.9-3.3-0.2-4.7,1.2l-1,1
			l-1.2-0.6c-0.9-0.5-1.3-0.6-1.7-0.3c-0.9,0.5-0.6,1.4,0.4,1.5c1.3,0.1,1.7,0.7,1.7,3c0,3.4-0.5,4.3-3,5.4l-1.2,0.6l-0.8-0.7
			c-0.5-0.4-1.3-0.9-1.8-1c-0.9-0.3-1-0.4-0.7-1.4c0.3-1.3,1.1-2.4,2.1-2.9c0.7-0.3,0.9-0.3,2,0.2c1.3,0.6,1.9,0.6,1.9-0.2
			c0-0.6-2.1-1.8-3.2-1.8c-0.7,0-0.8-0.1-0.8-1.3c0-2.8,1.5-4.7,3.9-5c0.9-0.1,1.2-0.3,1.3-0.8c0.1-0.8-0.9-1.1-2.3-0.7
			c-1.8,0.5-1.9,0.2-0.5-1.3c1.1-1.2,2.2-1.9,3.4-1.9c1.2,0,3.5,1.2,4.2,2.3c0.8,1,1.6,0.9,1.4-0.1c-0.2-0.8,0.6-0.9,1.4-0.2
			c0.5,0.5,1.3,0.3,1.3-0.3c0-0.2-0.3-0.8-0.7-1.2c-0.6-0.6-0.9-0.7-2-0.6c-1.6,0.2-2.3-0.4-1.2-1.1C38.8,43.7,40.7,43.8,41.8,44.8
			L41.8,44.8z M27.7,49.6c0.2,0.6,0.2,0.9-0.1,1.2c-0.8,0.9-1.4,2.7-1.4,4.6c-0.1,1.5-0.2,2.2-0.8,3c-0.4,0.6-0.9,1.8-1.1,2.6
			c-0.2,1.1-0.6,1.8-1.5,2.7l-1.2,1.2l-0.7-0.6c-0.6-0.5-0.7-0.9-0.7-2.4c0-2,0.7-4.6,1.5-5.6l0.6-0.7L22,56.9
			c-0.4,2.2-0.3,2.7,0.3,2.7c0.5,0,0.7-0.4,1.1-1.9c0.3-1,0.5-2.4,0.5-3.2c0-1.6,0.8-3.3,2-4.7C27,48.6,27.3,48.6,27.7,49.6
			L27.7,49.6z M36,63.8c0.4,0.2,1.7,0.5,2.9,0.6c3.1,0.3,4,1,4,3.3c0,2.2-1.3,4.1-3.4,5.1c-1.6,0.7-2.4,0.6-4.8-0.7
			c-1.6-0.8-1.9-0.9-2.5-0.6C31,72,31.3,72.8,32.6,73c0.6,0.1,1.6,0.5,2.2,0.9c0.6,0.4,1.3,0.8,1.6,0.8c0.4,0,0.5,0.3,0.5,1.5
			c0,2.1-0.5,3.4-1.1,3.1c-1.3-0.7-2.5-0.6-3.7,0.2c-1.7,1.1-2.9,3.5-1.7,3.5c0.2,0,0.8-0.5,1.4-1.1c0.8-0.8,1.3-1.1,1.9-1.1
			c1.1,0,2.2,0.9,2.5,2c0.2,1.1-0.3,3-1.2,4.4c-1.1,1.8-1.2,2.3-0.1,3.5c0.5,0.6,0.8,1.2,0.7,1.5c-0.3,0.7-1.5,1-2.8,0.7
			c-1.2-0.3-2-1.3-2.5-3.1c-0.3-0.9-0.2-1.1,0.7-2.1c0.9-1,1-1.2,0.6-1.5c-0.4-0.4-0.5-0.3-1.4,0.5c-1.8,1.7-3.5,0.9-3.4-1.5
			c0-2.4,0.5-3.4,1.7-3.7c1.1-0.2,2.9-1.9,2.9-2.7c0-0.7-1-0.5-1.7,0.3c-0.8,0.9-1.4,0.9-3.3,0.1c-1.9-0.8-2.6-0.5-4.2,1.5
			c-1.5,1.9-1.9,2.1-2.7,1.7c-0.8-0.4-1.9-2.3-1.9-3.3c0-0.9,0.2-0.9,1-0.3c0.3,0.2,1,0.4,1.6,0.4c2.4,0,4.5-2.9,4.7-6.4
			c0.1-1.8-0.7-1.7-1.3,0.2c-0.8,2.4-1.4,3.4-2.2,3.9c-1.1,0.7-1.6,0.6-2.7-0.3l-0.9-0.8l0-3.5c0-3.1,0.1-3.7,0.7-5
			c0.4-0.8,0.8-1.5,0.9-1.5c0.1,0,0.6,0.3,1,0.7c0.9,0.7,0.9,0.8,0.3,4.5c-0.2,0.9-0.1,1.1,0.4,1.1c0.7,0,1.4-1.5,1.7-3.8
			c0.4-3.6,2.6-4.7,5-2.7c1.2,1,1.6,2.3,1.4,4.9c-0.1,1.9-0.2,2.2-1,3.1c-1,1.1-1.2,1.7-0.6,2.1c0.8,0.5,2.8-2.5,3.2-4.9
			c0.2-1.4,1.2-2.5,2.2-2.5c0.4,0,1.6,0.3,2.6,0.6c2.8,0.9,4.5,0.7,4.3-0.5c-0.1-0.4-0.3-0.5-0.9-0.5c-0.4,0-2-0.3-3.4-0.8
			c-2.6-0.9-2.7-0.9-4.6-0.1c-0.3,0.1-0.5,0.1-0.5-0.2c0-0.2,0.6-0.7,1.3-1.1c0.7-0.4,1.7-1.2,2.1-1.8c0.7-0.9,0.8-1,1.2-0.7
			C35.1,63.2,35.6,63.6,36,63.8L36,63.8z M42.2,74.7c0.6,1.1,0.8,4,0.6,5.9c-0.2,1.1-0.4,1.6-1.3,2.5c-1.4,1.3-1.4,2.1-0.1,2
			l0.9-0.1l0.2,2.1c0.2,2.3-0.1,4.6-0.8,6c-0.5,1-2.2,2.2-3.5,2.5c-1,0.2-3.3,2.5-3.2,3.1c0.2,0.7,1.3,0.5,1.9-0.2
			c0.7-0.9,1.1-0.7,1.4,0.5c0.2,0.6,0.4,0.9,0.8,0.9c0.5,0,0.5-0.2,0.5-1.3c0-1.3,0-1.3,1.2-2.1l1.3-0.8l0.3,1.1
			c0.4,1.6,0.4,4.5-0.1,5.7c-0.7,1.7-3.4,3-5.1,2.4c-1.1-0.4-1.9-1.5-3-3.8c-1-2.2-1.8-2.8-2.1-1.3c-0.1,0.6-0.2,0.7-0.8,0.5
			c-0.9-0.3-1.1-0.8-0.5-1.5c0.6-0.8,0.6-2.5,0-2.5c-0.2,0-0.7,0.4-1,0.9c-2,2.8-4.7,1.8-5.6-2.1c-0.1-0.5-0.5-0.9-1.1-1.2
			c-1-0.4-1.9-1.4-1.9-2.1c0-0.2,0.3-0.4,0.7-0.5c1.4-0.3,1.1-1.8-0.3-1.8c-0.9,0-2-1.2-2.4-2.6c-0.4-1.6-0.1-2.2,0.9-2.2
			c0.9,0,2.5-1.4,3.8-3.3c0.5-0.7,0.7-0.8,1.3-0.7l0.7,0.2l-0.4,1.5C24.5,86,25.6,89,28,89c0.7,0,0.8,0.1,1,1.2
			c0.4,2.8,2.3,4.5,4.7,4.5c1.4,0,2.2-0.4,3.1-1.4c0.9-1.1,0.8-2.4-0.3-3.5c-0.9-0.9-0.9-0.9-0.4-1.7c1.6-2.4,2.1-5.1,1.4-6.9
			c-0.3-0.7-0.3-1,0.3-2c0.3-0.6,0.7-1.9,0.8-2.7c0.2-1.5,0.2-1.6,1.3-1.9c0.6-0.2,1.2-0.5,1.3-0.6C41.3,73.6,41.7,73.8,42.2,74.7
			L42.2,74.7z M49.6,41.7c-1.9,0.4-3.3,1.8-3.9,3.7c-0.5,1.7-0.4,7.2,0.1,8.9c0.4,1.4,0.4,1.6,0,2.8c-0.4,1-0.4,1.8-0.3,3.9
			c0.1,1.5,0.2,3.1,0.1,3.5c-0.2,3.5-0.1,5.8,0.4,6.8c0.5,1,0.5,1.1,0.1,2.3c-1,2.8-1.1,7.4-0.2,9.1c0.2,0.4,0.2,1.1,0,2.3
			c-0.4,2.6-0.4,5,0.1,6.9c0.4,1.5,0.4,1.8,0,3.3c-0.6,2.1-0.7,5.5-0.1,7.4c0.5,1.9,2.8,4.3,4.5,4.7c2.5,0.7,5-0.5,6.3-3
			c0.8-1.5,1-1.7,1.9-1.9c1.1-0.2,2-0.6,2.6-1.3c0.2-0.3,0.8-0.4,1.5-0.4c2.2,0,4-1.4,4.8-3.8c0.2-0.7,0.7-1.3,1.3-1.6
			c1.2-0.7,2-2,2.2-3.6c0.1-0.7,0.6-1.9,1.1-2.7c0.8-1.3,0.9-1.7,0.9-3.8c0-1.8,0.2-2.6,0.7-3.6c0.6-1.1,0.7-1.8,0.8-6.4
			c0.1-6-0.1-7.7-1.5-10.4c-0.8-1.6-1-2.4-1-3.6c0-2.9-1.3-6.2-3-7.9c-0.5-0.5-1.3-1.6-1.7-2.6c-1.2-2.4-3-4.2-4.3-4.2
			c-0.7,0-1.1-0.2-1.4-0.7c-0.3-0.4-1.1-1.1-1.8-1.5c-1.1-0.6-1.7-0.8-3.1-0.8c-1.5,0-1.9-0.1-2.7-0.8
			C52.9,41.7,51.1,41.3,49.6,41.7L49.6,41.7z M52.4,44.4c0.7,0.4,0.8,0.5,0.5,0.9c-0.2,0.3-0.7,0.4-1.5,0.2
			c-1.4-0.2-2.8,0.7-2.8,1.8c0,0.8,0.5,0.9,1.3,0.3c0.8-0.6,1.3-0.5,1.3,0.3c0,1.1,0.6,1.2,1.5,0.1c2.7-3.1,6.4-2.8,8.1,0.5l0.4,0.8
			l-1-0.2c-1.3-0.3-2.5-0.3-2.9,0.1c-0.5,0.5,0.3,1.2,1.3,1.2c2.1,0,3.6,1.9,3.9,4.6l0.2,1.7h-0.9c-1.3,0-3.2,1-3.2,1.7
			c0,0.9,0.7,1,1.8,0.2c1-0.6,1.1-0.6,2-0.2c1.2,0.6,1.9,1.7,2,3c0,0.8-0.1,1.1-0.5,1.2c-0.3,0.1-1.1,0.5-1.8,1l-1.3,0.8l-1.3-0.7
			c-2-1-2.4-1.8-2.6-4.5c-0.2-2.8,0.3-3.7,1.7-3.7c0.7,0,0.9-0.1,0.9-0.7c0-1.2-1.4-1.3-2.7-0.2c-0.5,0.4-0.6,0.3-1.6-0.6
			c-1.4-1.4-3.6-2-4.7-1.4c-0.6,0.4-0.1,1.1,0.9,1.3c2.5,0.5,3.7,2,3.8,5c0.1,2-0.1,2.5-1.3,3.1c-1,0.5-6.1,0.9-6.4,0.5
			c-0.1-0.2-0.2-1.3-0.2-2.4c0-2.6,0.5-3.3,2.3-3.3c1.3,0,1.7,0.3,1.7,1.6c0,0.6-0.2,0.8-0.6,0.9c-0.9,0.1-1,1-0.2,1.2
			c0.4,0.1,0.9,0,1.4-0.4c0.6-0.5,0.8-0.8,0.8-2.2c0.1-1.4,0-1.7-0.6-2.3c-0.6-0.6-1-0.7-2.3-0.7c-1.6,0-1.6,0-2.1-1.1
			c-0.3-0.8-0.5-2-0.5-4.2c0-3.4,0.4-4.6,1.7-5.3C49.9,43.9,51.4,43.9,52.4,44.4L52.4,44.4z M64.2,49.7c1.3,1.5,1.7,2.6,2.2,5.8
			c0.6,3.4,0.9,4.2,1.6,4.2c0.4,0,0.4-0.3,0.3-2c-0.1-1.1-0.1-2,0-2c0.1,0,0.4,0.5,0.7,1.1c0.7,1.4,1.2,3.7,1.2,5.5
			c0,1.2-0.1,1.5-0.7,2l-0.7,0.6l-1.3-1.3c-0.9-0.9-1.3-1.5-1.3-2.1c0-0.9-1.3-3.8-1.7-3.8c-0.1,0-0.3-1-0.3-2.1
			c0-1.8-0.1-2.4-0.8-3.7C62,49.3,62.6,47.8,64.2,49.7L64.2,49.7z M56.5,63.6c0.3,0.5,1.3,1.3,2.1,1.8c0.8,0.5,1.5,1,1.5,1.2
			c0,0.5-0.3,0.5-1.4-0.1c-0.9-0.5-1-0.4-3.7,0.4c-1.5,0.5-3.1,0.9-3.5,0.8c-0.5-0.1-0.7,0.1-0.8,0.5c-0.2,1.2,1.5,1.4,4.3,0.5
			c1-0.3,2.2-0.6,2.6-0.6c1,0,1.8,1,2.2,3.1c0.5,2.6,2.3,4.8,3.2,3.9c0.2-0.2-0.1-0.7-0.6-1.4c-2.1-2.9-1.7-7.1,0.9-8.7
			c1.4-0.9,2.3-0.7,3.4,0.5c0.7,0.8,0.9,1.4,0.9,2.2c0,1.6,0.9,4,1.5,4.1c0.6,0.1,0.9-0.8,0.5-1.8c-0.2-0.4-0.3-1.3-0.3-2
			c0-1,0.1-1.3,0.8-1.8c0.5-0.3,0.9-0.6,1-0.6c0.1,0,0.4,0.7,0.8,1.7c0.9,2.2,1,7.5,0.2,8.8c-1.1,1.6-2.9,1.7-4,0.1
			c-0.3-0.4-0.9-1.7-1.2-2.7c-0.8-2.4-1.4-2.6-1.4-0.4c0,1.1,0.3,2,0.9,3.2c1.3,2.6,3.3,3.5,5.3,2.5c0.5-0.2,0.9-0.4,1-0.3
			c0.3,0.3-0.6,2.8-1.4,3.5c-1.1,1-1.7,0.8-3.1-1.2c-0.7-0.9-1.5-1.7-1.9-1.9c-0.8-0.3-2-0.1-2.8,0.5c-0.9,0.6-2.1,0.5-2.9-0.3
			c-0.8-0.8-1.6-0.9-1.6-0.2c0,0.7,1.6,2.3,2.6,2.5c0.4,0.1,0.9,0.2,1.1,0.3c0.4,0.1,1,2.3,1,3.7c0,2.2-1.8,2.9-3.5,1.4
			c-0.8-0.7-1-0.8-1.3-0.5c-0.3,0.3-0.1,0.6,0.6,1.5c1,1.1,1,1.1,0.6,2.4c-0.5,1.8-1.7,2.9-3.2,2.9c-0.8,0-1.4-0.1-1.8-0.5l-0.6-0.5
			l0.8-0.9c1.3-1.4,1.3-1.7,0.2-3.8c-0.6-1.1-1.1-2.4-1.2-3.2c-0.1-1.2-0.1-1.5,0.6-2.3c1.1-1.3,2.3-1.3,3.7,0.2
			c1.3,1.3,1.9,1.5,1.9,0.5c0-0.9-2.1-3.3-3.1-3.5c-0.4-0.1-1.3,0-2,0.2l-1.2,0.4l-0.3-0.9c-0.4-1.3-0.6-3.2-0.4-3.5
			c0.4-0.5,3.8-2.1,4.5-2.1c0.6,0,0.7-0.1,0.7-0.6c-0.2-1.2-0.9-1.3-2.9-0.3c-1.8,0.9-2.5,1.1-4.2,1c-1.1-0.1-3.1-1.7-3.7-3.1
			c-0.5-1.1-0.5-3.3-0.1-4.1c0.4-0.8,2-1.4,3.7-1.4c1.6,0,3.1-0.5,3.7-1.2C55.7,62.5,55.8,62.5,56.5,63.6L56.5,63.6z M50.3,74.6
			c0.4,0.2,0.9,0.4,1,0.4c0.2,0,0.4,0.7,0.5,1.7c0.1,1,0.4,2.2,0.7,2.7c0.6,0.9,0.6,1.1,0.1,2.1c-0.7,1.8-0.1,4.5,1.7,7
			c0.3,0.4,0.2,0.6-0.4,1.1c-2.4,1.9-0.7,5.2,2.7,5.2c2.3,0,4.3-1.9,4.7-4.7c0.1-0.8,0.3-1.1,0.7-1.1c1,0,2-0.7,2.6-1.8
			c0.7-1.3,0.7-2.7,0.1-4.8c-0.3-1.2-0.3-1.6-0.1-1.8c0.8-0.5,1.2-0.2,2.5,1.6c1.1,1.5,2.1,2.2,3.3,2.2c0.8,0,0.8,0,0.6,1.6
			c-0.2,1.9-1.2,3.2-2.6,3.4c-0.7,0.1-0.9,0.2-1,0.7c-0.1,0.5,0.1,0.7,0.8,1c0.7,0.3,0.9,0.4,0.7,0.9c-0.3,0.9-1,1.6-1.9,1.8
			c-0.6,0.1-0.9,0.4-1,0.9c-0.6,2.8-1.5,3.9-3.2,3.9c-0.9,0-1.2-0.2-2.1-1.2c-0.7-0.8-1.3-1.2-1.5-1.1c-0.6,0.2-0.5,0.7,0.1,2.1
			c0.3,0.6,0.6,1.2,0.6,1.2c0,0-0.4,0.3-0.9,0.5c-0.8,0.4-0.9,0.4-0.9-0.1c0-0.5-0.5-1.2-0.9-1.2c-0.1,0-0.7,1.1-1.3,2.4
			c-1.4,3-2.2,3.8-3.9,3.8c-1.4,0-3.7-1.2-4-2c-0.5-1.4-0.7-3.3-0.4-5c0.2-1,0.4-1.9,0.4-2c0.1-0.1,0.7,0.1,1.4,0.5
			c1.2,0.7,1.2,0.8,1.2,2.1c0,1,0.1,1.3,0.5,1.4c0.3,0.1,0.6-0.2,0.8-0.9c0.4-1.4,0.8-1.5,1.5-0.6c0.7,0.9,1.7,1,1.7,0.1
			c0-1-1.6-2.4-3.5-3.1c-3.3-1.2-4.5-4.1-3.8-9c0.2-1.3,0.2-1.3,1.1-1.3c1.3,0.1,1.4-0.8,0.1-1.8c-0.6-0.5-1.1-1.3-1.3-1.8
			c-0.5-1.4-0.5-3.9-0.1-5.5C48.2,73.8,48.5,73.6,50.3,74.6L50.3,74.6z M50.3,74.6"/>
	</g>
</g>
<g id="Capa_2">
	<g>
		<path class="st1" d="M86.3,131v5.2c0,5-4.1,9.1-9.1,9.1H13.2c-5,0-9.1-4.1-9.1-9.1V12.9c0-5,4.1-9.1,9.1-9.1h63.9
			c5,0,9.1,4.1,9.1,9.1v118.8"/>
		<line class="st1" x1="4.1" y1="22" x2="86.3" y2="22"/>
		<line class="st1" x1="36" y1="12.9" x2="54.3" y2="12.9"/>
		<line class="st1" x1="4.1" y1="127.1" x2="86.3" y2="127.1"/>
	</g>
</g>
</svg>
