<?xml version="1.0" encoding="utf-8"?>
<!-- Generator: Adobe Illustrator 24.3.0, SVG Export Plug-In . SVG Version: 6.00 Build 0)  -->
<svg version="1.1" id="Capa_1" xmlns="http://www.w3.org/2000/svg" xmlns:xlink="http://www.w3.org/1999/xlink" x="0px" y="0px"
	 viewBox="0 0 123.5 116.4" style="enable-background:new 0 0 123.5 116.4;" xml:space="preserve">
<style type="text/css">
	.st0{fill:#1D1D1B;}
	.st1{fill:none;stroke:#1D1D1B;stroke-width:2.6452;stroke-linecap:round;stroke-linejoin:round;stroke-miterlimit:10;}
	.st2{fill:none;stroke:#1D1D1B;stroke-width:1.9839;stroke-linejoin:round;stroke-miterlimit:10;}
</style>
<g>
	<path class="st0" d="M119.2,3v20.9H4V3H119.2 M120.5,1.7H2.7v23.5h117.8V1.7L120.5,1.7z"/>
</g>
<g>
	<path class="st0" d="M40,31.9v24.4H4V31.9H40 M41.3,30.6H2.7v27h38.6V30.6L41.3,30.6z"/>
</g>
<g>
	<path class="st0" d="M117.9,33.3v55H52.4v-55H117.9 M120.5,30.6H49.8v60.2h70.7V30.6L120.5,30.6z"/>
</g>
<g>
	<path class="st0" d="M119.2,95v17.2H4V95H119.2 M120.5,93.7H2.7v19.8h117.8V93.7L120.5,93.7z"/>
</g>
<g>
	<path class="st0" d="M40,64.4v24.4H4V64.4H40 M41.3,63.1H2.7v27h38.6V63.1L41.3,63.1z"/>
</g>
<g>
	<circle class="st0" cx="15" cy="13.4" r="6.1"/>
</g>
<line class="st1" x1="35.8" y1="13.4" x2="48.5" y2="13.4"/>
<line class="st1" x1="55.8" y1="13.4" x2="68.5" y2="13.4"/>
<line class="st1" x1="61" y1="42.2" x2="110.4" y2="42.2"/>
<line class="st1" x1="61" y1="52" x2="110.4" y2="52"/>
<line class="st1" x1="61" y1="61.9" x2="110.4" y2="61.9"/>
<line class="st1" x1="61" y1="71.8" x2="89.5" y2="71.8"/>
<line class="st1" x1="11.1" y1="99.5" x2="37.3" y2="99.5"/>
<line class="st1" x1="49" y1="99.5" x2="75.2" y2="99.5"/>
<line class="st1" x1="86.3" y1="99.5" x2="112.5" y2="99.5"/>
<line class="st1" x1="11.1" y1="107.3" x2="29.5" y2="107.3"/>
<line class="st1" x1="53.9" y1="107.3" x2="70.4" y2="107.3"/>
<line class="st1" x1="92.7" y1="107.3" x2="111.6" y2="107.3"/>
<line class="st1" x1="75.8" y1="13.4" x2="88.4" y2="13.4"/>
<line class="st1" x1="95.7" y1="13.4" x2="108.4" y2="13.4"/>
<line class="st2" x1="4.1" y1="31.8" x2="40.1" y2="56.7"/>
<line class="st2" x1="40.1" y1="31.8" x2="4.1" y2="56.7"/>
<g>
	<path class="st0" d="M40,64.4v24.4H4V64.4H40 M41.3,63.1H2.7v27h38.6V63.1L41.3,63.1z"/>
</g>
<line class="st2" x1="4.1" y1="64.2" x2="40.1" y2="89.1"/>
<line class="st2" x1="40.1" y1="64.2" x2="4.1" y2="89.1"/>
</svg>
